<?xml version="1.0" encoding="utf-8"?>
<!-- Generator: Adobe Illustrator 16.0.0, SVG Export Plug-In . SVG Version: 6.00 Build 0)  -->
<!DOCTYPE svg PUBLIC "-//W3C//DTD SVG 1.1//EN" "http://www.w3.org/Graphics/SVG/1.1/DTD/svg11.dtd">
<svg version="1.1" id="Layer_1" xmlns="http://www.w3.org/2000/svg" xmlns:xlink="http://www.w3.org/1999/xlink" x="0px" y="0px"
	 width="428.978px" height="572.971px" viewBox="0 0 428.978 572.971" enable-background="new 0 0 428.978 572.971"
	 xml:space="preserve">
<g>
	<path fill="#C9003A" d="M44.15,475.119v23.448H28.221V430.15h27.771c8.113,0,14.551,2.076,19.313,6.227
		c4.761,4.15,7.142,9.578,7.142,16.281c0,6.736-2.381,12.164-7.142,16.282c-4.762,4.12-11.2,6.179-19.313,6.179H44.15z
		 M44.15,462.902h11.841c3.446,0,6.069-0.947,7.871-2.843c1.801-1.896,2.702-4.331,2.702-7.308c0-3.037-0.901-5.527-2.702-7.471
		c-1.802-1.941-4.425-2.913-7.871-2.913H44.15V462.902z"/>
	<path fill="#C9003A" d="M107.163,435.93H91.234v-10.667h15.929V435.93z M107.163,498.567H91.234v-50.843h15.929V498.567z"/>
	<path fill="#C9003A" d="M167.451,477.609l0.094,0.283c0.125,7.018-1.997,12.381-6.367,16.094
		c-4.37,3.712-10.126,5.568-17.269,5.568c-7.487,0-13.486-2.765-17.997-8.294c-4.511-5.528-6.767-12.788-6.767-21.78v-10.243
		c0-8.959,2.255-16.212,6.767-21.757c4.511-5.544,10.509-8.316,17.997-8.316c7.143,0,12.899,1.864,17.269,5.592
		c4.37,3.729,6.492,9.053,6.367,15.977l-0.094,0.281h-2.162c0-6.171-1.919-10.932-5.756-14.285
		c-3.837-3.352-9.045-5.027-15.624-5.027c-6.672,0-12.045,2.521-16.117,7.565c-4.073,5.044-6.109,11.669-6.109,19.876v10.338
		c0,8.303,2.036,14.967,6.109,19.994c4.072,5.028,9.445,7.542,16.117,7.542c6.579,0,11.787-1.612,15.624-4.84
		c3.837-3.226,5.756-8.082,5.756-14.567H167.451z"/>
	<path fill="#C9003A" d="M185.965,498.567h-2.538v-73.304h2.538V498.567z"/>
	<path fill="#C9003A" d="M236.807,489.451c-1.598,3.227-3.877,5.718-6.836,7.472c-2.961,1.754-6.556,2.632-10.785,2.632
		c-5.231,0-9.327-1.856-12.287-5.568c-2.96-3.713-4.441-9.469-4.441-17.27v-28.992h2.538v29.086c0,6.893,1.269,11.982,3.806,15.272
		c2.538,3.289,5.968,4.934,10.291,4.934c5.294,0,9.358-1.3,12.193-3.899c2.834-2.601,4.645-6.046,5.428-10.338v-35.055h2.584v50.843
		h-2.115L236.807,489.451z"/>
	<path fill="#C9003A" d="M286.475,486.115c0-2.693-1.15-5.146-3.453-7.354c-2.303-2.209-6.32-3.939-12.053-5.193
		c-6.047-1.283-10.424-2.936-13.135-4.957c-2.709-2.021-4.064-5.02-4.064-8.998c0-3.634,1.535-6.68,4.605-9.14
		c3.07-2.459,7.205-3.688,12.406-3.688c5.605,0,10.023,1.315,13.25,3.947c3.227,2.631,4.762,6.062,4.605,10.291l-0.094,0.281h-2.162
		c0-3.32-1.402-6.147-4.205-8.481c-2.805-2.333-6.602-3.501-11.395-3.501c-4.764,0-8.365,1.026-10.809,3.078
		s-3.664,4.425-3.664,7.119c0,2.662,1.033,4.934,3.1,6.812c2.068,1.881,6.172,3.525,12.312,4.935
		c5.67,1.315,9.969,3.109,12.898,5.38c2.928,2.271,4.393,5.443,4.393,9.516c0,3.979-1.629,7.205-4.887,9.68
		s-7.58,3.713-12.969,3.713c-5.92,0-10.564-1.324-13.932-3.971c-3.369-2.647-4.943-5.866-4.723-9.656l0.094-0.282h2.068
		c0.25,4.011,1.973,6.907,5.168,8.692c3.195,1.786,6.971,2.679,11.324,2.679c4.699,0,8.426-1.097,11.184-3.289
		C285.096,491.535,286.475,488.998,286.475,486.115z"/>
	<path fill="#C9003A" d="M308.465,434.003v13.721h12.5v2.584h-12.5v35.148c0,4.167,0.705,7.135,2.115,8.904
		c1.41,1.771,3.273,2.655,5.592,2.655c0.846,0,1.598-0.03,2.256-0.094c0.658-0.062,1.566-0.172,2.725-0.329l0.471,2.303
		c-0.783,0.25-1.598,0.423-2.443,0.517c-0.846,0.095-1.803,0.142-2.867,0.142c-3.414,0-6.008-1.112-7.777-3.337
		c-1.77-2.224-2.654-5.811-2.654-10.761v-35.148h-9.398v-2.584h9.398v-13.721H308.465z"/>
	<path fill="#C9003A" d="M350.286,499.554c-5.795,0-10.799-2.342-15.012-7.025c-4.215-4.683-6.32-10.502-6.32-17.457v-3.007
		c0-7.299,2.035-13.337,6.107-18.114s9.102-7.166,15.084-7.166c5.732,0,10.408,1.879,14.027,5.639
		c3.617,3.76,5.428,8.803,5.428,15.131v3.9h-38.109v0.61v3.007c0,6.141,1.801,11.333,5.404,15.577
		c3.602,4.245,8.066,6.367,13.391,6.367c3.791,0,6.963-0.517,9.516-1.55c2.553-1.035,4.738-2.585,6.557-4.652l1.361,1.973
		c-2.004,2.225-4.439,3.908-7.307,5.052C357.547,498.982,354.17,499.554,350.286,499.554z M350.145,449.322
		c-5.043,0-9.24,1.841-12.592,5.521c-3.354,3.682-5.248,8.278-5.688,13.791l0.143,0.282h35.053v-1.551
		c0-5.169-1.566-9.468-4.697-12.898C359.229,451.037,355.157,449.322,350.145,449.322z"/>
	<path fill="#C9003A" d="M403.854,449.556l-3.289-0.281c-4.543,0-8.23,1.465-11.066,4.394c-2.834,2.93-4.674,6.79-5.521,11.583
		v33.315h-2.537v-50.843h2.068l0.469,8.834v1.738c1.41-3.633,3.51-6.461,6.297-8.48c2.789-2.021,6.219-3.031,10.291-3.031
		c0.721,0,1.387,0.055,1.998,0.164c0.609,0.11,1.135,0.229,1.574,0.353L403.854,449.556z"/>
</g>
<g>
	<g>
		<polygon fill="none" stroke="#C9003A" stroke-miterlimit="10" points="214.843,29.947 124.193,52.61 214.844,90.381 		"/>
		<polygon fill="none" stroke="#C9003A" stroke-miterlimit="10" points="154.41,150.815 124.193,52.61 214.844,90.381 		"/>
		<polygon fill="none" stroke="#C9003A" stroke-miterlimit="10" points="41.097,150.815 124.193,52.61 154.41,150.815 		"/>
		<polygon fill="none" stroke="#C9003A" stroke-miterlimit="10" points="214.844,150.815 275.278,90.381 214.844,90.381 		"/>
		<polygon fill="none" stroke="#C9003A" stroke-miterlimit="10" points="350.82,90.381 275.278,37.501 214.844,90.381 		"/>
		<polygon fill="none" stroke="#C9003A" stroke-miterlimit="10" points="214.843,29.947 275.278,37.501 214.844,90.381 		"/>
		<polygon fill="none" stroke="#C9003A" stroke-miterlimit="10" points="33.542,211.249 93.977,150.815 41.097,150.815 		"/>
		<polygon fill="none" stroke="#C9003A" stroke-miterlimit="10" points="214.844,90.381 93.977,211.249 154.41,211.249 		"/>
		<polygon fill="none" stroke="#C9003A" stroke-miterlimit="10" points="214.843,211.249 154.41,211.249 214.844,90.381 		"/>
		<polygon fill="none" stroke="#C9003A" stroke-miterlimit="10" points="93.977,150.815 124.193,181.032 154.41,150.815 		"/>
		<polygon fill="none" stroke="#C9003A" stroke-miterlimit="10" points="93.977,211.249 93.977,150.815 124.193,181.032 		"/>
		<polygon fill="none" stroke="#C9003A" stroke-miterlimit="10" points="33.542,211.249 93.977,150.815 93.977,271.683 
			93.977,309.454 		"/>
		<polygon fill="none" stroke="#C9003A" stroke-miterlimit="10" points="154.41,241.466 93.977,271.683 93.977,211.249 		"/>
		<polygon fill="none" stroke="#C9003A" stroke-miterlimit="10" points="214.843,211.249 93.977,211.249 124.193,256.574 		"/>
		<polygon fill="none" stroke="#C9003A" stroke-miterlimit="10" points="275.278,90.381 335.711,211.249 214.844,150.815 		"/>
		<polygon fill="none" stroke="#C9003A" stroke-miterlimit="10" points="350.82,90.381 335.711,211.249 275.278,90.381 		"/>
		<polygon fill="none" stroke="#C9003A" stroke-miterlimit="10" points="93.977,271.683 154.41,332.117 214.844,211.249 		"/>
		<polygon fill="none" stroke="#C9003A" stroke-miterlimit="10" points="214.844,362.333 214.844,211.249 154.41,332.117 		"/>
		<polygon fill="none" stroke="#C9003A" stroke-miterlimit="10" points="93.977,309.454 41.097,271.683 56.205,249.02 		"/>
		<polygon fill="none" stroke="#C9003A" stroke-miterlimit="10" points="33.542,211.249 56.205,249.02 41.097,271.683 		"/>
		<polygon fill="none" stroke="#C9003A" stroke-miterlimit="10" points="93.977,309.454 154.411,384.996 154.41,332.117 		"/>
		<polygon fill="none" stroke="#C9003A" stroke-miterlimit="10" points="93.977,347.225 41.097,271.683 93.977,309.454 		"/>
		<polygon fill="none" stroke="#C9003A" stroke-miterlimit="10" points="154.411,384.996 93.977,309.454 93.977,347.225 		"/>
		<polygon fill="none" stroke="#C9003A" stroke-miterlimit="10" points="214.844,271.683 335.711,211.249 275.278,211.249 		"/>
		<line fill="none" stroke="#C9003A" stroke-miterlimit="10" x1="275.278" y1="181.031" x2="214.844" y2="271.683"/>
		<polygon fill="none" stroke="#C9003A" stroke-miterlimit="10" points="335.711,211.249 388.591,271.683 396.145,196.14 		"/>
		<polygon fill="none" stroke="#C9003A" stroke-miterlimit="10" points="350.82,90.381 365.928,150.815 335.711,211.249 		"/>
		<polygon fill="none" stroke="#C9003A" stroke-miterlimit="10" points="388.591,150.815 350.82,90.381 365.928,150.815 		"/>
		<polygon fill="none" stroke="#C9003A" stroke-miterlimit="10" points="275.278,271.683 350.82,332.117 358.375,233.912 		"/>
		<polyline fill="none" stroke="#C9003A" stroke-miterlimit="10" points="396.145,196.14 388.591,150.815 335.711,211.249 
			358.375,233.912 275.278,241.466 214.844,362.333 275.278,271.683 275.278,332.117 350.82,332.117 313.049,362.333 
			275.278,332.117 214.844,362.333 		"/>
		<line fill="none" stroke="#C9003A" stroke-miterlimit="10" x1="214.844" y1="317.008" x2="252.615" y2="286.791"/>
		<line fill="none" stroke="#C9003A" stroke-miterlimit="10" x1="388.591" y1="271.683" x2="350.82" y2="332.117"/>
		<polyline fill="none" stroke="#C9003A" stroke-miterlimit="10" points="267.723,384.996 313.049,362.333 214.844,362.333 
			154.411,384.996 214.843,392.55 214.844,362.333 267.723,384.996 214.843,392.55 		"/>
	</g>
	<g>
		<circle fill="#C9003A" cx="41.097" cy="150.815" r="3.022"/>
		<circle fill="#C9003A" cx="93.976" cy="150.815" r="5.439"/>
		<circle fill="#C9003A" cx="33.541" cy="211.249" r="7.555"/>
		<circle fill="#C9003A" cx="93.977" cy="211.249" r="7.554"/>
		<circle fill="#C9003A" cx="124.193" cy="181.031" r="5.439"/>
		<circle fill="#C9003A" cx="154.41" cy="150.814" r="15.108"/>
		<circle fill="#C9003A" cx="214.844" cy="150.814" r="7.554"/>
		<circle fill="#C9003A" cx="335.711" cy="211.249" r="15.108"/>
		<circle fill="#C9003A" cx="358.374" cy="233.911" r="4.533"/>
		<circle fill="#C9003A" cx="275.277" cy="211.249" r="7.554"/>
		<circle fill="#C9003A" cx="275.278" cy="181.031" r="3.021"/>
		<circle fill="#C9003A" cx="365.928" cy="150.815" r="5.439"/>
		<circle fill="#C9003A" cx="388.591" cy="150.814" r="4.533"/>
		<circle fill="#C9003A" cx="396.146" cy="196.14" r="6.043"/>
		<circle fill="#C9003A" cx="388.591" cy="271.682" r="7.554"/>
		<circle fill="#C9003A" cx="350.82" cy="332.117" r="5.439"/>
		<circle fill="#C9003A" cx="275.278" cy="271.683" r="5.439"/>
		<circle fill="#C9003A" cx="252.615" cy="286.791" r="3.021"/>
		<circle fill="#C9003A" cx="275.278" cy="332.117" r="3.021"/>
		<circle fill="#C9003A" cx="313.049" cy="362.333" r="9.065"/>
		<circle fill="#C9003A" cx="267.724" cy="384.996" r="3.626"/>
		<circle fill="#C9003A" cx="214.844" cy="392.55" r="4.23"/>
		<circle fill="#C9003A" cx="214.844" cy="362.333" r="9.669"/>
		<circle fill="#C9003A" cx="154.41" cy="384.996" r="7.554"/>
		<circle fill="#C9003A" cx="154.41" cy="332.117" r="15.108"/>
		<circle fill="#C9003A" cx="93.976" cy="309.454" r="4.23"/>
		<circle fill="#C9003A" cx="41.097" cy="271.682" r="5.439"/>
		<circle fill="#C9003A" cx="93.976" cy="347.225" r="3.022"/>
		<circle fill="#C9003A" cx="124.193" cy="256.574" r="3.022"/>
		<circle fill="#C9003A" cx="154.41" cy="241.466" r="4.23"/>
		<circle fill="#C9003A" cx="214.844" cy="211.249" r="15.109"/>
		<circle fill="#C9003A" cx="214.844" cy="271.682" r="3.022"/>
		<circle fill="#C9003A" cx="214.844" cy="317.008" r="5.741"/>
		<circle fill="#C9003A" cx="275.278" cy="90.381" r="5.439"/>
		<circle fill="#C9003A" cx="350.82" cy="90.381" r="7.554"/>
		<circle fill="#C9003A" cx="279.055" cy="41.279" r="11.332"/>
		<circle fill="#C9003A" cx="214.843" cy="29.947" r="7.555"/>
		<circle fill="#C9003A" cx="214.844" cy="90.381" r="3.022"/>
		<circle fill="#C9003A" cx="124.193" cy="52.61" r="6.043"/>
		<circle fill="#C9003A" cx="93.976" cy="271.683" r="6.044"/>
		<circle fill="#C9003A" cx="56.205" cy="249.02" r="3.022"/>
		<circle fill="#C9003A" cx="154.41" cy="211.249" r="3.022"/>
		<circle fill="#C9003A" cx="275.277" cy="241.466" r="10.274"/>
	</g>
</g>
<g opacity="0.1">
	<g>
		<polygon fill="none" stroke="#C9003A" stroke-miterlimit="10" points="213.332,29.947 303.981,52.61 213.331,90.381 		"/>
		<polygon fill="none" stroke="#C9003A" stroke-miterlimit="10" points="273.764,150.815 303.981,52.61 213.331,90.381 		"/>
		<polygon fill="none" stroke="#C9003A" stroke-miterlimit="10" points="387.079,150.815 303.981,52.61 273.764,150.815 		"/>
		<polygon fill="none" stroke="#C9003A" stroke-miterlimit="10" points="213.331,150.815 152.897,90.381 213.331,90.381 		"/>
		<polygon fill="none" stroke="#C9003A" stroke-miterlimit="10" points="77.355,90.381 152.897,37.501 213.331,90.381 		"/>
		<polygon fill="none" stroke="#C9003A" stroke-miterlimit="10" points="213.332,29.947 152.897,37.501 213.331,90.381 		"/>
		<polygon fill="none" stroke="#C9003A" stroke-miterlimit="10" points="394.633,211.249 334.198,150.815 387.079,150.815 		"/>
		<polygon fill="none" stroke="#C9003A" stroke-miterlimit="10" points="213.331,90.381 334.198,211.249 273.764,211.249 		"/>
		<polygon fill="none" stroke="#C9003A" stroke-miterlimit="10" points="213.332,211.249 273.764,211.249 213.331,90.381 		"/>
		<polygon fill="none" stroke="#C9003A" stroke-miterlimit="10" points="334.198,150.815 303.981,181.032 273.764,150.815 		"/>
		<polygon fill="none" stroke="#C9003A" stroke-miterlimit="10" points="334.198,211.249 334.198,150.815 303.981,181.032 		"/>
		<polygon fill="none" stroke="#C9003A" stroke-miterlimit="10" points="394.633,211.249 334.198,150.815 334.198,271.683 
			334.198,309.454 		"/>
		<polygon fill="none" stroke="#C9003A" stroke-miterlimit="10" points="273.764,241.466 334.198,271.683 334.198,211.249 		"/>
		<polygon fill="none" stroke="#C9003A" stroke-miterlimit="10" points="213.332,211.249 334.198,211.249 303.981,256.574 		"/>
		<polygon fill="none" stroke="#C9003A" stroke-miterlimit="10" points="152.897,90.381 92.463,211.249 213.331,150.815 		"/>
		<polygon fill="none" stroke="#C9003A" stroke-miterlimit="10" points="77.355,90.381 92.463,211.249 152.897,90.381 		"/>
		<polygon fill="none" stroke="#C9003A" stroke-miterlimit="10" points="334.198,271.683 273.764,332.117 213.331,211.249 		"/>
		<polygon fill="none" stroke="#C9003A" stroke-miterlimit="10" points="213.331,362.333 213.331,211.249 273.764,332.117 		"/>
		<polygon fill="none" stroke="#C9003A" stroke-miterlimit="10" points="334.198,309.454 387.079,271.683 371.969,249.02 		"/>
		<polygon fill="none" stroke="#C9003A" stroke-miterlimit="10" points="394.633,211.249 371.969,249.02 387.079,271.683 		"/>
		<polygon fill="none" stroke="#C9003A" stroke-miterlimit="10" points="334.198,309.454 273.764,384.996 273.764,332.117 		"/>
		<polygon fill="none" stroke="#C9003A" stroke-miterlimit="10" points="334.198,347.225 387.079,271.683 334.198,309.454 		"/>
		<polygon fill="none" stroke="#C9003A" stroke-miterlimit="10" points="273.764,384.996 334.198,309.454 334.198,347.225 		"/>
		<polygon fill="none" stroke="#C9003A" stroke-miterlimit="10" points="213.331,271.683 92.463,211.249 152.897,211.249 		"/>
		<line fill="none" stroke="#C9003A" stroke-miterlimit="10" x1="152.897" y1="181.031" x2="213.331" y2="271.683"/>
		<polygon fill="none" stroke="#C9003A" stroke-miterlimit="10" points="92.463,211.249 39.583,271.683 32.03,196.14 		"/>
		<polygon fill="none" stroke="#C9003A" stroke-miterlimit="10" points="77.355,90.381 62.247,150.815 92.463,211.249 		"/>
		<polygon fill="none" stroke="#C9003A" stroke-miterlimit="10" points="39.583,150.815 77.355,90.381 62.247,150.815 		"/>
		<polygon fill="none" stroke="#C9003A" stroke-miterlimit="10" points="152.897,271.683 77.355,332.117 69.8,233.912 		"/>
		<polyline fill="none" stroke="#C9003A" stroke-miterlimit="10" points="32.03,196.14 39.583,150.815 92.463,211.249 69.8,233.912 
			152.897,241.466 213.331,362.333 152.897,271.683 152.897,332.117 77.355,332.117 115.125,362.333 152.897,332.117 
			213.331,362.333 		"/>
		<line fill="none" stroke="#C9003A" stroke-miterlimit="10" x1="213.331" y1="317.008" x2="175.56" y2="286.791"/>
		<line fill="none" stroke="#C9003A" stroke-miterlimit="10" x1="39.583" y1="271.683" x2="77.355" y2="332.117"/>
		<polyline fill="none" stroke="#C9003A" stroke-miterlimit="10" points="160.452,384.996 115.125,362.333 213.331,362.333 
			273.764,384.996 213.332,392.55 213.331,362.333 160.452,384.996 213.332,392.55 		"/>
	</g>
	<g>
		<circle fill="#C9003A" cx="387.078" cy="150.815" r="3.022"/>
		<circle fill="#C9003A" cx="334.198" cy="150.815" r="5.439"/>
		<circle fill="#C9003A" cx="394.634" cy="211.249" r="7.555"/>
		<circle fill="#C9003A" cx="334.198" cy="211.249" r="7.554"/>
		<circle fill="#C9003A" cx="303.981" cy="181.031" r="5.439"/>
		<circle fill="#C9003A" cx="273.765" cy="150.814" r="15.108"/>
		<circle fill="#C9003A" cx="213.331" cy="150.814" r="7.554"/>
		<circle fill="#C9003A" cx="92.463" cy="211.249" r="15.108"/>
		<circle fill="#C9003A" cx="69.801" cy="233.911" r="4.533"/>
		<circle fill="#C9003A" cx="152.897" cy="211.249" r="7.554"/>
		<circle fill="#C9003A" cx="152.897" cy="181.031" r="3.021"/>
		<circle fill="#C9003A" cx="62.247" cy="150.815" r="5.439"/>
		<circle fill="#C9003A" cx="39.583" cy="150.814" r="4.533"/>
		<circle fill="#C9003A" cx="32.029" cy="196.14" r="6.043"/>
		<circle fill="#C9003A" cx="39.584" cy="271.682" r="7.554"/>
		<circle fill="#C9003A" cx="77.355" cy="332.117" r="5.439"/>
		<circle fill="#C9003A" cx="152.897" cy="271.683" r="5.439"/>
		<circle fill="#C9003A" cx="175.56" cy="286.791" r="3.021"/>
		<circle fill="#C9003A" cx="152.897" cy="332.117" r="3.021"/>
		<circle fill="#C9003A" cx="115.126" cy="362.333" r="9.065"/>
		<circle fill="#C9003A" cx="160.451" cy="384.996" r="3.626"/>
		<circle fill="#C9003A" cx="213.331" cy="392.55" r="4.23"/>
		<circle fill="#C9003A" cx="213.331" cy="362.333" r="9.669"/>
		<circle fill="#C9003A" cx="273.765" cy="384.996" r="7.554"/>
		<circle fill="#C9003A" cx="273.765" cy="332.117" r="15.108"/>
		<circle fill="#C9003A" cx="334.198" cy="309.454" r="4.23"/>
		<circle fill="#C9003A" cx="387.078" cy="271.682" r="5.439"/>
		<circle fill="#C9003A" cx="334.198" cy="347.225" r="3.022"/>
		<circle fill="#C9003A" cx="303.981" cy="256.574" r="3.022"/>
		<circle fill="#C9003A" cx="273.764" cy="241.466" r="4.23"/>
		<circle fill="#C9003A" cx="213.331" cy="211.249" r="15.109"/>
		<circle fill="#C9003A" cx="213.331" cy="271.682" r="3.021"/>
		<circle fill="#C9003A" cx="213.331" cy="317.008" r="5.741"/>
		<circle fill="#C9003A" cx="152.897" cy="90.381" r="5.439"/>
		<circle fill="#C9003A" cx="77.354" cy="90.381" r="7.554"/>
		<circle fill="#C9003A" cx="149.12" cy="41.279" r="11.332"/>
		<circle fill="#C9003A" cx="213.332" cy="29.947" r="7.555"/>
		<circle fill="#C9003A" cx="213.331" cy="90.381" r="3.021"/>
		<circle fill="#C9003A" cx="303.981" cy="52.61" r="6.043"/>
		<circle fill="#C9003A" cx="334.199" cy="271.683" r="6.044"/>
		<circle fill="#C9003A" cx="371.969" cy="249.02" r="3.021"/>
		<circle fill="#C9003A" cx="273.765" cy="211.249" r="3.022"/>
		<circle fill="#C9003A" cx="152.897" cy="241.466" r="10.274"/>
	</g>
</g>
<g>
	<path d="M95.075,513.801l4.721,10.852h0.048l4.737-10.852h0.626v11.533h-0.428v-10.781l-0.048-0.016l-4.737,10.797h-0.341
		l-4.713-10.741l-0.047,0.016v10.726h-0.428v-11.533H95.075z"/>
	<path d="M113.531,523.75c-0.296,0.518-0.737,0.938-1.323,1.263c-0.586,0.325-1.296,0.487-2.131,0.487
		c-0.797,0-1.423-0.218-1.877-0.653c-0.455-0.436-0.682-1.022-0.682-1.763c0-0.718,0.339-1.319,1.018-1.806
		c0.679-0.485,1.527-0.729,2.547-0.729h2.448v-1.252c0-0.713-0.229-1.269-0.686-1.667c-0.457-0.399-1.1-0.599-1.929-0.599
		c-0.776,0-1.401,0.188-1.874,0.562s-0.709,0.858-0.709,1.45l-0.356-0.017l-0.016-0.039c-0.032-0.666,0.227-1.229,0.776-1.691
		c0.549-0.462,1.275-0.693,2.178-0.693c0.919,0,1.656,0.232,2.21,0.697c0.555,0.465,0.832,1.136,0.832,2.012v4.294
		c0,0.301,0.017,0.594,0.051,0.879s0.091,0.567,0.17,0.848h-0.476c-0.068-0.375-0.115-0.656-0.138-0.844
		c-0.024-0.188-0.036-0.39-0.036-0.605V523.75z M110.077,525.081c0.851,0,1.57-0.187,2.159-0.562s1.021-0.911,1.295-1.608v-1.925
		h-2.424c-0.887,0-1.636,0.204-2.246,0.613c-0.61,0.41-0.915,0.915-0.915,1.518c0,0.575,0.194,1.047,0.582,1.414
		S109.433,525.081,110.077,525.081z"/>
	<path d="M117.08,516.764l0.055,1.766c0.259-0.612,0.636-1.086,1.133-1.422c0.496-0.335,1.109-0.503,1.838-0.503
		c0.935,0,1.636,0.295,2.103,0.884s0.701,1.521,0.701,2.8v5.046h-0.428v-5.062c0-1.188-0.212-2.025-0.637-2.511
		c-0.425-0.486-1.002-0.729-1.731-0.729c-0.924,0-1.621,0.276-2.091,0.828s-0.763,1.258-0.879,2.119v5.354h-0.428v-8.57H117.08z"/>
	<path d="M130.974,523.75c-0.296,0.518-0.737,0.938-1.323,1.263c-0.586,0.325-1.296,0.487-2.131,0.487
		c-0.797,0-1.423-0.218-1.877-0.653c-0.455-0.436-0.682-1.022-0.682-1.763c0-0.718,0.339-1.319,1.018-1.806
		c0.679-0.485,1.527-0.729,2.547-0.729h2.448v-1.252c0-0.713-0.229-1.269-0.686-1.667c-0.457-0.399-1.1-0.599-1.929-0.599
		c-0.776,0-1.401,0.188-1.874,0.562s-0.709,0.858-0.709,1.45l-0.356-0.017l-0.016-0.039c-0.032-0.666,0.227-1.229,0.776-1.691
		c0.549-0.462,1.275-0.693,2.178-0.693c0.919,0,1.656,0.232,2.21,0.697c0.555,0.465,0.832,1.136,0.832,2.012v4.294
		c0,0.301,0.017,0.594,0.051,0.879s0.091,0.567,0.17,0.848h-0.476c-0.068-0.375-0.115-0.656-0.138-0.844
		c-0.024-0.188-0.036-0.39-0.036-0.605V523.75z M127.52,525.081c0.851,0,1.57-0.187,2.159-0.562s1.021-0.911,1.295-1.608v-1.925
		h-2.424c-0.887,0-1.636,0.204-2.246,0.613c-0.61,0.41-0.915,0.915-0.915,1.518c0,0.575,0.194,1.047,0.582,1.414
		S126.876,525.081,127.52,525.081z"/>
	<path d="M133.754,521.042c0-1.357,0.285-2.437,0.855-3.236s1.362-1.2,2.376-1.2c0.666,0,1.244,0.15,1.735,0.452
		c0.491,0.301,0.882,0.715,1.172,1.243l0.063-1.536h0.365v8.618c0,1.088-0.287,1.929-0.86,2.522
		c-0.573,0.594-1.366,0.892-2.38,0.892c-0.417,0-0.851-0.044-1.303-0.131s-0.846-0.207-1.184-0.36l0.126-0.428
		c0.385,0.169,0.758,0.294,1.117,0.376c0.359,0.082,0.768,0.123,1.228,0.123c0.924,0,1.625-0.258,2.103-0.772
		s0.717-1.256,0.717-2.222v-1.362c-0.291,0.454-0.684,0.814-1.18,1.081s-1.075,0.399-1.735,0.399c-1.008,0-1.797-0.385-2.364-1.156
		c-0.568-0.771-0.852-1.816-0.852-3.137V521.042z M134.19,521.208c0,1.183,0.235,2.123,0.705,2.82
		c0.47,0.696,1.159,1.045,2.067,1.045c0.745,0,1.362-0.167,1.854-0.503c0.491-0.335,0.848-0.782,1.069-1.343v-4.056
		c-0.211-0.606-0.545-1.115-1.002-1.524c-0.457-0.409-1.092-0.614-1.905-0.614c-0.909,0-1.6,0.371-2.076,1.113
		c-0.475,0.742-0.713,1.707-0.713,2.896V521.208z"/>
	<path d="M145.961,525.5c-0.977,0-1.82-0.395-2.531-1.184c-0.71-0.79-1.065-1.771-1.065-2.943v-0.507c0-1.23,0.343-2.248,1.03-3.054
		c0.687-0.805,1.534-1.208,2.543-1.208c0.966,0,1.754,0.317,2.364,0.951s0.915,1.483,0.915,2.551v0.657h-6.424v0.103v0.507
		c0,1.035,0.304,1.911,0.911,2.626c0.607,0.716,1.36,1.073,2.257,1.073c0.639,0,1.174-0.087,1.604-0.261
		c0.43-0.175,0.798-0.436,1.105-0.784l0.229,0.332c-0.338,0.375-0.749,0.659-1.232,0.852
		C147.185,525.405,146.616,525.5,145.961,525.5z M145.938,517.033c-0.851,0-1.558,0.311-2.123,0.931
		c-0.565,0.621-0.884,1.396-0.958,2.325l0.024,0.048h5.909v-0.262c0-0.871-0.264-1.596-0.792-2.175
		C147.469,517.322,146.782,517.033,145.938,517.033z"/>
	<path d="M155.316,525.334v-11.533h3.192c1.326,0,2.45,0.476,3.375,1.426s1.386,2.162,1.386,3.636v1.41
		c0,1.479-0.462,2.691-1.386,3.64s-2.049,1.422-3.375,1.422H155.316z M155.744,514.229v10.678h2.764
		c1.199,0,2.221-0.438,3.065-1.314c0.845-0.877,1.268-1.983,1.268-3.319v-1.434c0-1.32-0.422-2.419-1.268-3.296
		c-0.845-0.876-1.867-1.314-3.065-1.314H155.744z"/>
	<path d="M165.035,520.882c0-1.257,0.347-2.283,1.042-3.081c0.694-0.797,1.596-1.196,2.705-1.196c1.114,0,2.019,0.399,2.713,1.196
		c0.694,0.798,1.042,1.824,1.042,3.081v0.333c0,1.263-0.347,2.292-1.042,3.09c-0.694,0.797-1.594,1.195-2.697,1.195
		c-1.114,0-2.02-0.398-2.717-1.195c-0.697-0.798-1.046-1.827-1.046-3.09V520.882z M165.463,521.215c0,1.077,0.301,1.989,0.903,2.737
		c0.602,0.747,1.413,1.12,2.432,1.12c1.003,0,1.806-0.375,2.408-1.124c0.602-0.75,0.903-1.661,0.903-2.733v-0.333
		c0-1.051-0.304-1.955-0.911-2.713c-0.607-0.758-1.413-1.137-2.416-1.137c-1.009,0-1.814,0.379-2.416,1.137
		s-0.903,1.662-0.903,2.713V521.215z"/>
	<path d="M177.496,525.073c0.724,0,1.362-0.197,1.917-0.594s0.832-0.99,0.832-1.782h0.365l0.016,0.048
		c0.021,0.839-0.287,1.509-0.923,2.008s-1.372,0.748-2.206,0.748c-1.093,0-1.95-0.393-2.57-1.18
		c-0.621-0.787-0.931-1.822-0.931-3.105v-0.333c0-1.277,0.309-2.31,0.927-3.097c0.618-0.787,1.471-1.181,2.559-1.181
		c0.887,0,1.638,0.261,2.253,0.78c0.615,0.521,0.912,1.253,0.891,2.198l-0.016,0.048h-0.365c0-0.84-0.269-1.482-0.808-1.929
		c-0.539-0.446-1.191-0.67-1.957-0.67c-1.003,0-1.764,0.359-2.282,1.077c-0.518,0.719-0.776,1.643-0.776,2.772v0.333
		c0,1.141,0.258,2.069,0.776,2.784C175.716,524.715,176.482,525.073,177.496,525.073z"/>
	<path d="M184.418,520.954h-1.172v4.381h-0.428v-12.357h0.428v7.549h1.006l3.897-3.762h0.499l0.016,0.047l-3.929,3.857l4.23,4.626
		l-0.016,0.04h-0.499L184.418,520.954z"/>
	<path d="M193.259,525.5c-0.977,0-1.82-0.395-2.531-1.184c-0.71-0.79-1.065-1.771-1.065-2.943v-0.507c0-1.23,0.343-2.248,1.03-3.054
		c0.687-0.805,1.534-1.208,2.543-1.208c0.966,0,1.754,0.317,2.364,0.951s0.915,1.483,0.915,2.551v0.657h-6.424v0.103v0.507
		c0,1.035,0.304,1.911,0.911,2.626c0.607,0.716,1.36,1.073,2.257,1.073c0.639,0,1.174-0.087,1.604-0.261
		c0.43-0.175,0.798-0.436,1.105-0.784l0.229,0.332c-0.338,0.375-0.749,0.659-1.232,0.852
		C194.483,525.405,193.914,525.5,193.259,525.5z M193.235,517.033c-0.851,0-1.558,0.311-2.123,0.931
		c-0.565,0.621-0.884,1.396-0.958,2.325l0.024,0.048h5.909v-0.262c0-0.871-0.264-1.596-0.792-2.175
		C194.767,517.322,194.08,517.033,193.235,517.033z"/>
	<path d="M202.29,517.073l-0.555-0.048c-0.766,0-1.388,0.247-1.865,0.741c-0.478,0.493-0.789,1.145-0.931,1.952v5.616h-0.428v-8.57
		h0.349l0.079,1.488v0.294c0.238-0.613,0.591-1.09,1.062-1.431c0.47-0.34,1.048-0.511,1.735-0.511c0.122,0,0.234,0.01,0.336,0.028
		c0.103,0.019,0.191,0.038,0.266,0.06L202.29,517.073z"/>
	<path d="M210.686,525.073c0.724,0,1.362-0.197,1.917-0.594c0.555-0.396,0.832-0.99,0.832-1.782h0.365l0.016,0.048
		c0.021,0.839-0.287,1.509-0.924,2.008c-0.636,0.499-1.371,0.748-2.206,0.748c-1.093,0-1.95-0.393-2.57-1.18
		c-0.621-0.787-0.931-1.822-0.931-3.105v-0.333c0-1.277,0.309-2.31,0.927-3.097c0.618-0.787,1.471-1.181,2.559-1.181
		c0.887,0,1.638,0.261,2.252,0.78c0.615,0.521,0.914,1.253,0.893,2.198l-0.016,0.048h-0.365c0-0.84-0.27-1.482-0.809-1.929
		c-0.538-0.446-1.19-0.67-1.956-0.67c-1.003,0-1.764,0.359-2.282,1.077c-0.518,0.719-0.776,1.643-0.776,2.772v0.333
		c0,1.141,0.258,2.069,0.776,2.784C208.906,524.715,209.672,525.073,210.686,525.073z"/>
	<path d="M215.335,520.882c0-1.257,0.347-2.283,1.041-3.081c0.694-0.797,1.597-1.196,2.705-1.196c1.114,0,2.019,0.399,2.714,1.196
		c0.694,0.798,1.041,1.824,1.041,3.081v0.333c0,1.263-0.347,2.292-1.041,3.09c-0.695,0.797-1.594,1.195-2.697,1.195
		c-1.114,0-2.021-0.398-2.718-1.195c-0.696-0.798-1.045-1.827-1.045-3.09V520.882z M215.763,521.215
		c0,1.077,0.301,1.989,0.902,2.737c0.603,0.747,1.413,1.12,2.433,1.12c1.003,0,1.806-0.375,2.407-1.124
		c0.603-0.75,0.903-1.661,0.903-2.733v-0.333c0-1.051-0.304-1.955-0.911-2.713s-1.412-1.137-2.416-1.137
		c-1.009,0-1.813,0.379-2.416,1.137c-0.602,0.758-0.902,1.662-0.902,2.713V521.215z"/>
	<path d="M225.252,516.764l0.056,1.766c0.259-0.612,0.637-1.086,1.133-1.422c0.496-0.335,1.109-0.503,1.838-0.503
		c0.935,0,1.636,0.295,2.103,0.884c0.468,0.589,0.701,1.521,0.701,2.8v5.046h-0.428v-5.062c0-1.188-0.213-2.025-0.638-2.511
		c-0.425-0.486-1.002-0.729-1.73-0.729c-0.924,0-1.621,0.276-2.091,0.828c-0.471,0.552-0.764,1.258-0.88,2.119v5.354h-0.428v-8.57
		H225.252z"/>
	<path d="M234.656,514.451v2.313h2.106v0.436h-2.106v5.925c0,0.702,0.118,1.203,0.356,1.501c0.237,0.299,0.552,0.447,0.942,0.447
		c0.143,0,0.27-0.005,0.38-0.016c0.111-0.011,0.265-0.029,0.46-0.056l0.079,0.389c-0.132,0.042-0.27,0.071-0.412,0.087
		s-0.304,0.023-0.483,0.023c-0.575,0-1.013-0.188-1.311-0.562c-0.299-0.374-0.447-0.979-0.447-1.813V517.2h-1.585v-0.436h1.585
		v-2.313H234.656z"/>
	<path d="M244.161,523.75c-0.296,0.518-0.737,0.938-1.323,1.263c-0.586,0.325-1.296,0.487-2.131,0.487
		c-0.797,0-1.423-0.218-1.877-0.653s-0.682-1.022-0.682-1.763c0-0.718,0.34-1.319,1.019-1.806c0.678-0.485,1.527-0.729,2.546-0.729
		h2.448v-1.252c0-0.713-0.229-1.269-0.686-1.667c-0.457-0.399-1.1-0.599-1.929-0.599c-0.776,0-1.4,0.188-1.873,0.562
		s-0.709,0.858-0.709,1.45l-0.356-0.017l-0.017-0.039c-0.031-0.666,0.228-1.229,0.776-1.691c0.55-0.462,1.275-0.693,2.179-0.693
		c0.919,0,1.655,0.232,2.21,0.697s0.832,1.136,0.832,2.012v4.294c0,0.301,0.017,0.594,0.052,0.879
		c0.034,0.285,0.091,0.567,0.17,0.848h-0.476c-0.068-0.375-0.114-0.656-0.139-0.844c-0.023-0.188-0.035-0.39-0.035-0.605V523.75z
		 M240.707,525.081c0.851,0,1.57-0.187,2.159-0.562c0.588-0.375,1.021-0.911,1.295-1.608v-1.925h-2.424
		c-0.888,0-1.636,0.204-2.246,0.613c-0.609,0.41-0.915,0.915-0.915,1.518c0,0.575,0.194,1.047,0.582,1.414
		C239.546,524.898,240.062,525.081,240.707,525.081z"/>
	<path d="M247.875,514.071h-0.428v-1.094h0.428V514.071z M247.875,525.334h-0.428v-8.57h0.428V525.334z"/>
	<path d="M251.051,516.764l0.056,1.766c0.259-0.612,0.637-1.086,1.133-1.422c0.496-0.335,1.109-0.503,1.838-0.503
		c0.935,0,1.636,0.295,2.103,0.884c0.468,0.589,0.701,1.521,0.701,2.8v5.046h-0.428v-5.062c0-1.188-0.213-2.025-0.638-2.511
		c-0.425-0.486-1.002-0.729-1.73-0.729c-0.924,0-1.621,0.276-2.091,0.828c-0.471,0.552-0.764,1.258-0.88,2.119v5.354h-0.428v-8.57
		H251.051z"/>
	<path d="M262.49,525.5c-0.977,0-1.82-0.395-2.53-1.184c-0.711-0.79-1.065-1.771-1.065-2.943v-0.507c0-1.23,0.343-2.248,1.029-3.054
		c0.687-0.805,1.534-1.208,2.543-1.208c0.966,0,1.755,0.317,2.364,0.951c0.61,0.634,0.915,1.483,0.915,2.551v0.657h-6.424v0.103
		v0.507c0,1.035,0.304,1.911,0.911,2.626c0.606,0.716,1.359,1.073,2.257,1.073c0.639,0,1.174-0.087,1.604-0.261
		c0.43-0.175,0.799-0.436,1.104-0.784l0.23,0.332c-0.339,0.375-0.749,0.659-1.232,0.852C263.713,525.405,263.145,525.5,262.49,525.5
		z M262.466,517.033c-0.851,0-1.558,0.311-2.123,0.931c-0.565,0.621-0.885,1.396-0.958,2.325l0.023,0.048h5.909v-0.262
		c0-0.871-0.264-1.596-0.792-2.175C263.998,517.322,263.311,517.033,262.466,517.033z"/>
	<path d="M271.52,517.073l-0.555-0.048c-0.766,0-1.387,0.247-1.865,0.741c-0.478,0.493-0.788,1.145-0.931,1.952v5.616h-0.428v-8.57
		h0.349l0.079,1.488v0.294c0.238-0.613,0.592-1.09,1.062-1.431c0.47-0.34,1.048-0.511,1.734-0.511c0.122,0,0.234,0.01,0.337,0.028
		c0.104,0.019,0.191,0.038,0.266,0.06L271.52,517.073z"/>
	<path d="M278.38,523.235c0-0.454-0.194-0.867-0.582-1.239c-0.389-0.372-1.065-0.664-2.032-0.875
		c-1.019-0.217-1.757-0.495-2.214-0.836s-0.686-0.847-0.686-1.517c0-0.613,0.259-1.126,0.776-1.541
		c0.518-0.414,1.215-0.622,2.092-0.622c0.945,0,1.689,0.222,2.233,0.666c0.544,0.443,0.803,1.021,0.776,1.734l-0.016,0.048h-0.364
		c0-0.56-0.236-1.037-0.709-1.43c-0.473-0.394-1.113-0.591-1.921-0.591c-0.803,0-1.41,0.173-1.822,0.52
		c-0.412,0.346-0.618,0.745-0.618,1.199c0,0.449,0.175,0.832,0.523,1.149c0.349,0.316,1.04,0.594,2.075,0.831
		c0.956,0.222,1.681,0.524,2.175,0.907c0.493,0.383,0.74,0.918,0.74,1.604c0,0.67-0.274,1.214-0.824,1.632
		c-0.549,0.417-1.277,0.625-2.186,0.625c-0.998,0-1.781-0.223-2.349-0.669c-0.568-0.446-0.833-0.989-0.797-1.628l0.017-0.048h0.349
		c0.042,0.677,0.332,1.165,0.871,1.466c0.538,0.301,1.175,0.451,1.909,0.451c0.792,0,1.42-0.185,1.885-0.554
		C278.148,524.149,278.38,523.721,278.38,523.235z"/>
	<path d="M281.889,525.334h-0.682v-1.029h0.682V525.334z"/>
	<path d="M295.705,522.57c0-0.724-0.266-1.302-0.797-1.734c-0.53-0.434-1.45-0.829-2.76-1.188c-1.315-0.354-2.277-0.757-2.888-1.208
		s-0.915-1.11-0.915-1.977c0-0.86,0.359-1.547,1.077-2.06c0.719-0.512,1.635-0.768,2.749-0.768c1.125,0,2.044,0.313,2.757,0.942
		c0.713,0.628,1.059,1.437,1.037,2.424l-0.016,0.048h-0.364c0-0.861-0.317-1.574-0.95-2.14c-0.634-0.564-1.455-0.847-2.464-0.847
		c-1.046,0-1.873,0.233-2.483,0.7c-0.61,0.468-0.915,1.029-0.915,1.684c0,0.655,0.252,1.199,0.757,1.632
		c0.504,0.433,1.416,0.818,2.736,1.156c1.278,0.338,2.243,0.752,2.896,1.24s0.979,1.182,0.979,2.079
		c0,0.914-0.373,1.633-1.117,2.158s-1.677,0.788-2.796,0.788c-1.157,0-2.152-0.271-2.986-0.812
		c-0.835-0.541-1.238-1.393-1.212-2.555l0.016-0.048h0.356c0,1.046,0.386,1.805,1.156,2.277c0.771,0.473,1.661,0.709,2.67,0.709
		c1.014,0,1.847-0.232,2.499-0.696C295.378,523.912,295.705,523.309,295.705,522.57z"/>
	<path d="M298.778,514.071h-0.428v-1.094h0.428V514.071z M298.778,525.334h-0.428v-8.57h0.428V525.334z"/>
	<path d="M301.875,516.764l0.056,1.766c0.259-0.606,0.631-1.079,1.117-1.418c0.485-0.338,1.077-0.507,1.774-0.507
		c0.739,0,1.34,0.189,1.802,0.566c0.462,0.378,0.78,0.96,0.954,1.747c0.228-0.729,0.599-1.298,1.113-1.707s1.158-0.614,1.929-0.614
		c0.945,0,1.663,0.31,2.154,0.927c0.491,0.618,0.737,1.59,0.737,2.915v4.888h-0.436v-4.903c0-1.241-0.222-2.117-0.666-2.63
		c-0.443-0.512-1.035-0.769-1.774-0.769c-0.908,0-1.595,0.273-2.06,0.82c-0.465,0.546-0.755,1.253-0.871,2.118
		c0,0.106,0.003,0.197,0.008,0.273c0.006,0.077,0.008,0.152,0.008,0.227v4.871h-0.436v-4.903c0-1.246-0.222-2.124-0.665-2.634
		s-1.038-0.765-1.782-0.765c-0.888,0-1.561,0.261-2.021,0.78c-0.459,0.521-0.752,1.195-0.879,2.024v5.497h-0.436v-8.57H301.875z"/>
	<path d="M322.683,521.208c0,1.32-0.285,2.366-0.855,3.137c-0.57,0.771-1.357,1.156-2.36,1.156c-0.671,0-1.256-0.135-1.755-0.403
		c-0.499-0.27-0.888-0.634-1.168-1.094v4.626h-0.428v-11.865h0.333l0.087,1.536c0.285-0.528,0.673-0.942,1.164-1.243
		c0.491-0.302,1.075-0.452,1.751-0.452c1.009,0,1.799,0.4,2.372,1.2s0.859,1.879,0.859,3.236V521.208z M322.248,521.042
		c0-1.188-0.239-2.153-0.717-2.896s-1.168-1.113-2.071-1.113c-0.829,0-1.474,0.209-1.933,0.626c-0.46,0.417-0.787,0.93-0.982,1.537
		v4.008c0.211,0.57,0.565,1.024,1.062,1.362s1.119,0.507,1.869,0.507c0.903,0,1.591-0.349,2.063-1.045
		c0.473-0.697,0.709-1.638,0.709-2.82V521.042z"/>
	<path d="M325.543,525.334h-0.428v-12.357h0.428V525.334z"/>
	<path d="M330.621,523.782l0.316,0.855h0.048l0.048-0.127l2.962-7.746h0.476l-3.81,9.996c-0.232,0.603-0.504,1.092-0.812,1.47
		c-0.309,0.377-0.801,0.566-1.478,0.566c-0.1,0-0.211-0.01-0.332-0.028c-0.122-0.019-0.212-0.038-0.27-0.06l0.071-0.403
		c0.058,0.016,0.146,0.031,0.262,0.047c0.115,0.017,0.205,0.024,0.269,0.024c0.486,0,0.865-0.143,1.137-0.428
		c0.272-0.285,0.514-0.708,0.726-1.268l0.515-1.395l-3.414-8.522h0.467L330.621,523.782z"/>
	<path d="M335.944,525.334h-0.682v-1.029h0.682V525.334z"/>
</g>
</svg>
