<?xml version="1.0" standalone="no"?>
<!DOCTYPE svg PUBLIC "-//W3C//DTD SVG 20010904//EN"
 "http://www.w3.org/TR/2001/REC-SVG-20010904/DTD/svg10.dtd">
<svg version="1.0" xmlns="http://www.w3.org/2000/svg"
 width="1208.000000pt" height="1208.000000pt" viewBox="0 0 1208.000000 1208.000000"
 preserveAspectRatio="xMidYMid meet">
<metadata>
Created by potrace 1.11, written by Peter Selinger 2001-2013
</metadata>
<g transform="translate(0.000000,1208.000000) scale(0.100000,-0.100000)"
fill="#000000" stroke="none">
<path d="M1390 8896 c0 -11 -8 -12 -34 -6 -19 4 -40 4 -47 -1 -7 -4 -17 -5
-21 -2 -5 2 -15 0 -23 -7 -8 -7 -15 -7 -19 -1 -9 14 -41 5 -38 -10 1 -9 -3 -7
-12 4 -8 10 -16 13 -18 7 -1 -5 -28 -11 -60 -13 -31 -1 -54 -5 -52 -8 5 -9
-27 -21 -34 -14 -3 3 1 5 8 5 7 0 10 3 7 6 -4 4 -13 1 -22 -6 -8 -7 -15 -9
-15 -5 0 4 -8 1 -17 -6 -15 -12 -16 -12 -8 1 7 12 6 13 -7 3 -8 -7 -18 -10
-21 -6 -4 3 -7 2 -7 -3 0 -5 -8 -11 -17 -12 -44 -5 -58 -11 -55 -23 2 -9 0
-10 -10 -1 -9 7 -19 7 -28 2 -9 -6 -17 -5 -22 3 -5 8 -8 6 -8 -5 0 -10 -3 -17
-7 -16 -15 3 -63 -14 -63 -23 0 -4 -9 -6 -20 -4 -11 2 -20 0 -20 -6 0 -5 -9
-9 -20 -9 -11 0 -20 -5 -20 -12 0 -6 -3 -8 -7 -5 -3 4 -12 2 -20 -4 -7 -6 -13
-8 -13 -3 0 4 -7 -1 -16 -12 -8 -10 -12 -13 -9 -6 6 11 3 11 -14 0 -12 -7 -21
-16 -21 -21 0 -4 -4 -5 -10 -2 -5 3 -10 2 -10 -4 0 -6 -7 -7 -17 -4 -10 4 -14
2 -10 -4 3 -5 -9 -16 -28 -23 -19 -8 -35 -17 -35 -22 0 -4 -5 -8 -11 -8 -6 0
-17 -7 -26 -15 -8 -8 -19 -12 -25 -9 -6 4 -8 2 -5 -3 4 -6 0 -16 -8 -23 -8 -7
-15 -9 -15 -6 0 4 -11 -5 -25 -19 -14 -14 -30 -25 -36 -25 -5 0 -15 -11 -21
-25 -6 -14 -15 -25 -20 -25 -12 0 -47 -38 -41 -44 4 -3 -1 -6 -10 -6 -10 0
-17 -7 -17 -15 0 -8 -5 -15 -11 -15 -5 0 -8 -4 -5 -9 3 -5 -1 -12 -10 -15 -8
-3 -13 -10 -10 -15 3 -5 -1 -11 -9 -15 -8 -3 -15 -12 -15 -19 0 -8 -7 -20 -15
-27 -8 -7 -13 -16 -10 -20 3 -5 1 -10 -4 -12 -5 -1 -11 -12 -13 -23 -1 -11 -9
-26 -16 -33 -7 -8 -10 -18 -6 -23 3 -6 1 -15 -4 -22 -5 -7 -12 -29 -16 -50 -4
-21 -10 -46 -13 -54 -5 -12 -3 -14 8 -8 12 8 12 6 0 -8 -7 -9 -11 -17 -8 -17
3 0 2 -14 -3 -30 -6 -21 -5 -28 2 -24 6 4 8 -1 4 -14 -4 -11 -2 -23 4 -27 6
-4 7 -12 1 -24 -5 -9 -6 -23 -1 -31 4 -7 7 -22 5 -32 -2 -10 0 -16 4 -13 5 2
12 -12 16 -33 8 -45 27 -92 37 -92 5 0 8 -9 8 -20 0 -11 5 -20 10 -20 6 0 10
-9 10 -20 0 -12 7 -20 17 -20 9 0 14 -3 11 -6 -3 -3 14 -26 38 -51 24 -26 40
-51 37 -56 -3 -6 -1 -7 5 -3 7 4 12 2 12 -4 0 -6 5 -8 10 -5 6 3 10 1 10 -6 0
-6 14 -25 30 -41 17 -15 30 -26 30 -23 0 3 11 -2 25 -11 14 -9 22 -21 18 -27
-3 -6 -1 -7 5 -3 7 4 12 2 12 -4 0 -6 5 -8 10 -5 6 3 10 1 10 -5 0 -6 4 -8 10
-5 5 3 10 -1 10 -9 0 -9 3 -15 8 -15 19 3 33 -2 27 -11 -3 -5 3 -10 14 -10 12
0 21 -5 21 -11 0 -5 4 -8 9 -4 5 3 16 -2 24 -10 9 -8 24 -15 35 -15 11 0 25
-7 32 -15 7 -8 16 -12 21 -9 5 3 9 -1 9 -9 0 -11 7 -13 22 -9 14 3 19 2 14 -6
-5 -8 0 -12 13 -12 12 0 22 1 24 2 1 1 13 -5 27 -12 14 -8 30 -15 35 -16 6 -1
38 -11 72 -23 34 -12 70 -21 78 -21 9 0 14 -4 11 -8 -2 -4 3 -8 12 -9 55 -3
105 -12 115 -22 7 -7 16 -7 29 0 10 5 18 6 18 1 0 -5 16 -8 35 -7 25 0 35 -4
35 -15 0 -9 3 -11 8 -5 6 9 28 11 42 5 3 -1 35 -4 71 -5 36 -1 71 -5 77 -9 6
-3 13 0 15 6 3 7 6 8 6 2 1 -6 21 -9 51 -8 32 2 50 -1 50 -9 0 -6 7 -2 16 9 8
10 13 14 10 8 -7 -14 32 -26 40 -12 3 5 18 7 32 3 16 -4 28 -1 33 7 7 10 9 10
9 0 0 -9 6 -10 18 -4 9 4 36 8 60 7 23 0 42 3 42 8 0 5 8 3 17 -4 12 -10 15
-11 9 -1 -6 10 -1 11 18 6 16 -4 26 -2 26 5 0 5 12 10 28 10 63 1 72 3 67 11
-3 5 8 7 24 5 16 -2 38 3 48 10 13 9 22 10 30 3 9 -7 13 -7 13 1 0 6 12 11 26
11 17 0 23 4 18 13 -6 9 -4 9 8 -1 12 -10 17 -10 20 -1 2 6 18 12 35 13 17 0
31 5 30 10 -1 4 11 10 27 12 16 1 32 8 36 15 4 6 12 9 18 5 6 -3 12 -2 14 3 1
5 12 11 23 13 11 1 26 9 33 16 7 6 22 12 33 12 10 0 19 5 19 12 0 6 3 9 6 5 4
-3 13 0 21 8 8 8 23 15 34 15 11 0 17 5 14 10 -5 9 16 15 38 11 5 -1 6 3 2 9
-3 5 0 10 8 10 8 0 18 7 21 16 3 8 10 13 15 9 5 -3 16 4 25 16 9 13 19 18 27
14 8 -5 10 -4 5 3 -4 7 -1 12 9 12 9 0 13 5 10 10 -3 6 -1 10 4 10 14 0 111
97 111 110 0 6 4 9 9 5 5 -3 12 4 16 15 4 11 11 18 16 15 5 -3 6 2 2 11 -4 12
-3 15 5 10 7 -4 14 3 18 19 4 15 11 22 18 18 6 -3 8 -3 4 2 -8 8 19 64 37 77
7 5 7 8 0 8 -5 0 -3 5 5 10 11 7 12 10 2 10 -10 0 -10 4 2 16 9 8 16 27 16 40
0 14 4 23 8 20 5 -3 9 1 9 9 0 8 -5 15 -11 15 -7 0 -7 3 1 8 6 4 13 28 14 53
l3 46 40 -1 c23 -1 47 -5 55 -10 10 -6 12 -5 7 2 -5 8 -2 10 8 6 9 -3 14 -10
11 -15 -3 -4 4 -6 15 -4 11 2 20 -2 20 -8 0 -8 3 -8 9 1 7 11 9 11 14 -2 4 -9
13 -13 22 -10 8 3 15 1 15 -5 0 -6 3 -11 8 -10 15 2 52 -14 52 -22 0 -5 9 -9
20 -9 11 0 20 -7 20 -16 0 -8 4 -12 10 -9 5 3 21 -5 35 -19 14 -14 25 -22 25
-18 0 4 14 -8 30 -27 17 -18 30 -31 30 -27 0 4 11 -4 25 -18 14 -14 25 -29 25
-35 0 -5 9 -13 21 -16 13 -4 18 -12 15 -21 -3 -8 -2 -13 2 -10 8 5 42 -28 42
-39 0 -3 8 -13 18 -23 26 -29 47 -63 44 -74 -1 -5 1 -8 5 -5 7 3 44 -28 42
-35 -3 -12 24 -60 36 -64 8 -3 12 -10 9 -15 -3 -5 2 -12 10 -15 9 -3 13 -10
10 -15 -3 -5 2 -12 10 -15 9 -3 14 -10 11 -14 -3 -5 1 -14 8 -22 7 -7 16 -21
20 -30 3 -10 11 -18 16 -18 6 0 7 -7 4 -17 -4 -11 -3 -14 5 -9 8 5 12 0 12
-13 0 -12 5 -21 10 -21 6 0 10 -7 10 -15 0 -8 5 -15 11 -15 5 0 7 -5 4 -10 -3
-6 1 -13 9 -16 9 -3 13 -10 10 -15 -3 -5 0 -9 6 -9 6 0 8 -4 5 -10 -3 -5 -1
-10 4 -10 6 0 17 -15 25 -34 8 -18 19 -37 25 -40 6 -4 11 -16 11 -27 0 -11 7
-22 15 -25 8 -4 15 -13 15 -21 0 -8 4 -11 10 -8 5 3 7 0 4 -8 -3 -8 2 -17 10
-20 9 -4 16 -16 16 -27 0 -12 4 -19 8 -16 5 3 15 -7 23 -22 8 -15 20 -33 27
-40 7 -8 9 -18 6 -24 -4 -6 -3 -8 3 -5 5 4 16 -5 23 -18 7 -14 17 -25 22 -25
4 0 8 -6 8 -14 0 -7 11 -21 24 -32 14 -10 23 -21 20 -26 -3 -4 2 -8 10 -8 9 0
16 -7 16 -16 0 -8 4 -12 10 -9 6 3 10 2 10 -4 0 -6 11 -21 24 -34 14 -14 22
-28 18 -33 -4 -4 -2 -4 5 0 6 3 16 -2 22 -11 6 -10 11 -14 11 -10 0 4 11 -2
25 -15 64 -60 75 -68 85 -68 6 0 20 -9 32 -20 12 -11 29 -20 39 -20 9 0 19 -6
22 -14 4 -9 14 -12 26 -9 15 4 21 1 21 -10 0 -10 7 -15 20 -12 11 2 20 1 20
-3 0 -4 12 -9 27 -10 15 -1 29 -6 32 -11 3 -4 14 -7 23 -5 10 1 20 -2 24 -7 3
-5 10 -7 15 -4 5 4 9 0 9 -7 0 -10 2 -10 8 -1 14 23 33 -2 26 -35 -4 -17 -10
-30 -14 -27 -5 3 -7 -8 -6 -25 1 -19 -3 -31 -13 -35 -12 -5 -13 -8 -2 -14 10
-6 9 -11 -4 -25 -9 -9 -13 -16 -8 -16 5 0 9 -9 9 -20 0 -11 -4 -20 -9 -20 -4
0 -5 -6 -1 -12 14 -23 12 -46 -4 -40 -13 4 -13 2 0 -19 8 -13 14 -45 13 -71
-1 -26 2 -45 7 -42 4 3 5 -3 1 -12 -5 -13 -3 -15 8 -9 12 8 12 6 0 -8 -9 -12
-18 -14 -31 -7 -13 7 -21 5 -30 -5 -7 -8 -16 -13 -20 -10 -5 3 -12 1 -15 -5
-5 -8 -11 -7 -21 1 -12 9 -13 9 -9 -2 4 -10 -2 -15 -15 -17 -43 -4 -50 -6 -50
-14 0 -5 -4 -6 -10 -3 -6 3 -10 0 -10 -7 0 -9 -3 -9 -10 2 -8 13 -10 12 -10
-2 0 -10 -3 -17 -7 -16 -15 4 -103 -44 -97 -53 3 -5 -2 -9 -12 -9 -9 0 -27
-11 -40 -26 -13 -14 -24 -22 -24 -18 0 4 -8 -3 -19 -14 -10 -12 -24 -22 -30
-22 -7 0 -9 -5 -5 -12 5 -8 2 -9 -10 -5 -10 4 -15 3 -11 -3 3 -5 -3 -15 -15
-22 -11 -7 -20 -19 -20 -26 0 -7 -4 -10 -10 -7 -5 3 -10 -2 -10 -11 0 -10 -3
-15 -6 -11 -3 3 -27 -20 -52 -51 -25 -31 -49 -58 -54 -60 -4 -2 -8 -13 -8 -25
0 -18 -2 -19 -10 -7 -8 13 -10 13 -10 -1 0 -9 -7 -22 -15 -29 -8 -6 -13 -15
-12 -18 1 -4 -2 -7 -6 -7 -5 0 -15 -15 -23 -33 -8 -21 -18 -31 -25 -26 -7 4
-9 3 -5 -4 3 -6 -1 -18 -10 -26 -8 -9 -12 -16 -7 -16 4 0 -1 -7 -11 -15 -11
-8 -17 -15 -13 -15 4 0 -1 -9 -11 -20 -9 -12 -16 -23 -14 -26 2 -3 -6 -14 -17
-23 -11 -10 -18 -21 -14 -25 3 -3 1 -6 -5 -6 -7 0 -12 -7 -12 -15 0 -8 -5 -15
-11 -15 -5 0 -8 -4 -5 -9 3 -5 -1 -11 -9 -15 -8 -3 -15 -13 -15 -21 0 -9 -4
-13 -10 -10 -9 5 -15 -16 -11 -38 1 -5 -3 -6 -8 -3 -5 3 -16 -9 -24 -27 -9
-17 -29 -46 -44 -62 -15 -17 -29 -35 -31 -40 -1 -6 -16 -25 -32 -42 -15 -18
-25 -33 -22 -33 4 0 -4 -7 -16 -16 -12 -8 -22 -22 -22 -31 0 -9 -3 -13 -6 -10
-7 7 -64 -52 -64 -66 0 -5 -4 -6 -9 -2 -5 3 -12 -4 -16 -15 -3 -11 -15 -20
-25 -20 -10 0 -20 -7 -24 -15 -3 -8 -13 -15 -22 -15 -10 0 -14 -3 -11 -7 8 -7
-34 -39 -45 -35 -5 1 -8 -3 -8 -9 0 -5 -4 -7 -10 -4 -5 3 -10 2 -10 -3 0 -10
-38 -25 -54 -23 -5 1 -6 -4 -3 -12 4 -10 -2 -13 -21 -11 -15 1 -31 -1 -38 -6
-6 -5 -19 -11 -30 -13 -10 -1 -25 -6 -31 -10 -7 -5 -17 -5 -23 -2 -5 3 -10 1
-10 -5 0 -6 -11 -8 -25 -6 -15 3 -25 0 -25 -7 0 -8 -3 -8 -8 -2 -8 12 -27 13
-38 3 -4 -4 -14 -2 -22 5 -12 9 -14 9 -9 0 5 -7 -1 -17 -14 -24 -12 -6 -18
-14 -13 -18 13 -9 16 -71 3 -71 -5 0 -7 5 -3 12 4 6 3 8 -4 5 -7 -5 -7 -14 1
-31 7 -13 16 -22 22 -18 5 3 4 -2 -4 -11 -9 -12 -10 -17 -2 -17 7 0 10 -4 7
-8 -3 -5 1 -9 9 -9 8 0 12 3 10 7 -4 6 60 13 107 12 10 -1 20 3 23 9 4 5 12 9
18 9 7 0 6 -4 -3 -11 -12 -9 -12 -10 3 -5 10 3 23 6 28 6 6 0 8 4 4 10 -3 5 7
7 26 5 17 -2 28 -1 25 3 -4 3 8 11 26 17 23 7 35 7 40 0 5 -6 8 -3 8 8 0 9 5
17 11 17 5 0 7 -5 4 -11 -4 -6 2 -5 14 3 12 7 21 16 21 21 0 4 6 7 13 5 7 -2
13 1 14 6 3 17 27 25 42 13 12 -10 14 -9 8 6 -4 11 -3 16 3 12 6 -4 24 7 41
24 17 17 35 31 40 31 5 0 29 18 51 40 23 22 46 40 50 40 4 0 8 7 8 15 0 8 4
14 8 12 4 -1 20 10 35 26 16 15 25 27 22 27 -4 0 10 16 31 35 20 19 33 35 29
35 -4 0 4 11 19 25 14 13 26 28 26 33 0 6 7 13 16 16 9 4 14 9 11 12 -6 7 4
22 43 62 14 14 18 22 10 18 -8 -4 -6 0 4 8 11 9 16 16 11 16 -5 0 1 7 13 16
12 8 20 20 17 25 -4 5 -1 9 6 9 7 0 10 3 7 6 -3 3 5 16 19 30 13 13 21 29 18
34 -3 6 -1 10 4 10 6 0 11 7 11 15 0 8 8 15 18 16 9 0 12 3 5 5 -8 4 -1 16 18
35 16 16 27 34 24 39 -3 6 -1 10 6 10 7 0 9 3 6 7 -4 3 5 17 19 30 14 12 21
23 17 23 -4 1 2 9 14 19 12 10 19 21 16 25 -4 3 -1 6 5 6 7 0 12 6 12 14 0 8
7 17 16 20 9 4 14 13 10 22 -3 8 -2 12 3 9 5 -3 12 4 16 15 4 11 11 18 16 15
5 -4 9 1 9 9 0 9 9 21 20 28 11 7 20 17 20 22 0 5 23 31 50 57 28 26 50 53 50
60 0 7 3 10 6 6 3 -3 22 9 41 26 20 18 39 31 44 30 5 -2 9 1 9 7 0 9 51 40 67
41 5 0 12 7 16 15 5 8 12 12 18 9 5 -4 9 -1 9 6 0 7 3 9 7 6 3 -4 12 -2 20 4
7 6 13 8 13 3 0 -4 7 1 16 12 8 10 13 13 9 7 -7 -16 11 -17 20 -3 4 6 16 8 27
4 15 -5 20 -3 16 7 -4 11 7 14 47 15 44 1 52 -1 47 -14 -3 -10 -1 -13 6 -8 7
4 15 0 19 -9 3 -10 15 -27 27 -39 38 -40 61 -71 58 -78 -1 -5 1 -7 6 -5 10 3
58 -46 54 -56 -1 -5 2 -6 7 -3 5 4 16 -2 23 -12 13 -18 36 -31 50 -28 4 0 15
-9 23 -22 9 -12 20 -20 24 -18 4 3 14 -4 21 -15 8 -10 20 -19 28 -19 8 0 10
-5 6 -12 -5 -9 -2 -9 9 1 15 12 17 11 17 -3 0 -10 5 -14 10 -11 6 3 10 1 10
-6 0 -7 3 -9 7 -6 3 4 12 2 20 -4 7 -6 13 -8 13 -3 0 5 4 3 9 -4 4 -7 17 -15
27 -16 10 -2 18 -9 17 -14 -2 -6 4 -9 12 -6 8 3 22 -2 31 -11 9 -9 23 -14 30
-11 8 3 14 1 14 -3 0 -5 7 -12 16 -15 9 -3 12 -2 8 5 -3 6 11 2 32 -9 22 -10
50 -18 62 -17 13 1 26 -4 29 -12 3 -7 16 -13 29 -13 12 0 28 -8 34 -17 11 -17
11 -17 6 1 -6 16 -4 17 9 6 8 -7 15 -9 15 -5 0 4 6 3 13 -2 6 -5 22 -8 35 -7
12 0 22 -3 22 -7 0 -5 5 -9 11 -9 5 0 7 5 3 11 -3 6 6 3 22 -7 17 -12 25 -14
20 -6 -7 11 -4 12 10 4 11 -5 27 -8 37 -7 10 2 17 -3 17 -13 0 -14 2 -14 9 -3
6 9 15 11 27 6 11 -4 44 -9 74 -9 30 -1 61 -5 69 -10 10 -6 12 -6 7 2 -9 14
-9 14 32 3 23 -7 32 -6 33 2 0 7 4 3 9 -8 5 -11 9 -15 9 -8 1 7 8 10 18 6 11
-4 14 -3 9 5 -5 8 -2 10 8 6 9 -3 13 -11 9 -18 -5 -8 -3 -8 8 0 8 6 34 10 59
9 25 -1 53 3 64 8 13 6 16 6 12 -2 -4 -6 -2 -11 3 -11 6 0 11 6 11 13 0 8 4 7
10 -3 5 -8 10 -10 10 -4 0 5 20 9 46 9 25 -1 56 4 70 11 14 7 22 9 19 5 -3 -5
2 -11 10 -14 8 -4 12 -1 9 6 -3 8 9 12 36 11 23 0 43 3 46 7 2 5 11 6 19 2 9
-3 15 1 15 8 0 11 3 11 10 -1 7 -12 10 -12 10 -1 0 7 6 11 14 8 8 -3 22 0 32
8 13 9 23 10 31 3 9 -7 13 -7 13 1 0 7 5 9 10 6 6 -3 10 -1 10 6 0 9 3 9 14 0
11 -9 15 -8 20 5 4 11 14 15 31 11 14 -2 28 0 31 5 3 5 12 7 20 4 8 -3 13 0
11 7 -1 7 6 11 16 9 9 -2 17 2 17 8 0 5 5 10 11 10 5 0 7 -6 3 -12 -4 -7 2 -4
14 6 12 11 22 15 22 11 0 -4 8 -1 18 8 10 10 22 14 25 10 4 -3 7 -1 7 5 0 6 7
9 15 6 8 -4 15 -1 15 5 0 6 9 11 20 11 11 0 20 5 20 10 0 6 7 10 16 10 8 0 31
11 51 25 20 13 41 21 46 18 6 -3 7 -1 3 5 -4 7 3 14 19 18 14 3 25 10 25 16 0
5 4 7 9 4 5 -3 11 1 15 9 3 8 13 15 21 15 9 0 14 4 10 9 -3 5 4 12 15 16 11 3
20 11 20 17 0 6 2 9 5 6 3 -3 23 12 44 33 22 21 42 35 46 31 4 -4 6 -2 5 3 -5
22 1 35 13 32 6 -1 11 4 10 11 -4 16 2 15 21 -4 12 -12 16 -12 16 -2 0 10 3 9
10 -2 5 -8 10 -10 10 -5 0 6 21 9 50 7 27 -2 50 -8 50 -13 0 -5 11 -9 25 -9
14 0 25 -5 25 -11 0 -8 6 -7 17 2 15 12 16 12 11 -2 -5 -12 -2 -16 11 -12 10
2 25 -3 34 -11 9 -9 22 -15 29 -14 7 2 12 -2 11 -9 -2 -7 4 -10 12 -7 8 4 15
1 15 -5 0 -6 6 -11 14 -11 8 0 22 -10 30 -22 9 -12 16 -18 16 -13 0 6 7 1 15
-9 8 -11 15 -17 15 -13 0 3 26 -19 59 -51 32 -31 56 -60 54 -64 -2 -5 3 -8 11
-8 9 0 16 -5 16 -10 0 -6 12 -22 26 -35 15 -14 23 -25 18 -25 -5 0 0 -7 10
-15 11 -8 16 -15 11 -15 -5 0 0 -9 11 -20 30 -31 45 -50 38 -50 -3 0 4 -9 17
-20 13 -10 20 -19 16 -20 -4 0 -3 -6 3 -12 41 -49 51 -64 56 -85 4 -12 9 -21
14 -18 4 2 13 -8 21 -23 8 -15 16 -29 19 -32 17 -17 53 -76 53 -86 0 -7 3 -12
6 -10 3 2 12 -2 19 -10 7 -8 8 -14 2 -14 -5 0 0 -10 13 -22 12 -13 26 -22 30
-20 4 1 7 -3 5 -11 -3 -12 6 -25 45 -68 9 -10 17 -23 17 -29 0 -5 9 -14 20
-20 11 -6 20 -16 20 -22 0 -14 118 -128 132 -128 5 0 6 -4 3 -10 -3 -6 -1 -10
6 -10 6 0 20 -10 30 -22 11 -11 19 -17 19 -13 0 4 8 -2 19 -13 10 -12 21 -19
25 -15 3 3 6 1 6 -5 0 -7 6 -12 13 -12 7 0 22 -8 33 -18 10 -10 28 -16 39 -15
11 1 14 0 7 -3 -9 -4 -5 -11 13 -20 31 -16 48 -19 25 -4 -8 5 -10 10 -4 10 6
0 17 -7 24 -15 7 -9 21 -13 31 -10 15 5 17 3 12 -12 -6 -16 -5 -16 10 -4 11 9
17 10 17 2 0 -6 14 -11 30 -11 17 0 30 -4 30 -9 0 -4 12 -8 28 -8 74 0 78 -1
76 -33 -1 -16 2 -30 7 -30 5 0 9 -10 9 -23 0 -12 8 -33 17 -46 9 -14 11 -21 5
-17 -7 4 -12 2 -12 -3 0 -6 7 -11 16 -11 13 0 14 -3 5 -14 -9 -11 -8 -15 4
-20 9 -3 14 -10 10 -15 -3 -5 5 -17 17 -25 12 -9 17 -16 10 -16 -13 0 3 -23
50 -72 14 -15 24 -28 21 -28 -3 0 8 -13 25 -29 16 -16 28 -32 24 -35 -3 -3 2
-6 11 -6 9 0 17 -4 17 -10 0 -14 42 -50 52 -44 4 3 8 -2 8 -10 0 -8 5 -18 12
-22 7 -5 9 -2 4 7 -4 8 -1 6 7 -3 8 -10 19 -18 26 -18 6 0 11 -5 11 -11 0 -5
4 -7 10 -4 5 3 10 -1 10 -10 0 -9 5 -13 10 -10 6 3 13 0 15 -8 3 -7 21 -20 40
-27 19 -7 32 -17 30 -21 -3 -4 2 -10 11 -13 8 -3 12 -2 9 4 -10 16 0 12 25
-10 12 -11 27 -17 31 -14 5 3 9 0 9 -6 0 -6 4 -9 9 -6 5 4 11 2 13 -4 2 -6 13
-12 26 -15 29 -5 43 -15 38 -24 -3 -4 11 -7 30 -6 21 0 40 -5 47 -15 11 -13
10 -13 -8 0 -19 14 -19 14 -6 -3 10 -13 17 -15 27 -6 11 9 14 8 14 -1 0 -8 3
-10 7 -7 3 4 12 2 20 -4 7 -6 13 -8 13 -4 0 4 12 0 26 -10 15 -9 23 -12 20 -6
-5 7 -1 9 8 5 9 -3 16 -9 16 -13 0 -4 17 -8 37 -9 20 -1 40 -7 44 -13 4 -6 12
-8 18 -4 7 4 18 1 26 -5 10 -8 15 -9 15 -2 0 6 7 9 15 6 8 -4 13 -9 10 -13 -2
-4 2 -8 10 -8 8 0 11 5 8 11 -4 6 0 6 8 -1 8 -7 24 -12 34 -12 40 -1 55 -5 55
-13 0 -5 10 -4 21 3 12 6 19 7 16 1 -4 -5 16 -9 46 -10 29 0 57 -1 62 -2 6 -1
25 -1 44 0 25 1 31 -1 25 -12 -6 -10 -3 -9 10 1 15 13 19 13 27 0 6 -10 9 -10
9 -1 0 6 5 12 11 12 5 0 7 -6 3 -12 -5 -9 -2 -9 9 1 13 10 17 10 17 1 0 -10 3
-10 14 -1 11 9 16 9 21 0 6 -8 10 -7 16 2 7 11 9 11 9 -1 0 -13 1 -13 10 0 8
12 11 13 19 1 7 -11 9 -11 13 0 4 12 8 11 23 -1 11 -9 16 -10 11 -2 -5 9 5 12
41 13 45 1 118 6 136 8 5 1 5 7 1 14 -6 9 -4 9 8 -1 10 -8 18 -9 22 -3 4 6 13
8 21 5 7 -3 23 0 35 6 15 8 20 8 16 1 -5 -7 -1 -9 8 -5 9 3 16 10 16 14 0 4
11 6 25 5 14 -2 25 2 25 8 0 8 3 7 9 -2 6 -9 11 -10 15 -2 4 6 12 9 17 6 5 -4
9 -1 9 6 0 7 3 9 7 6 3 -4 13 -1 21 6 13 9 14 9 8 0 -5 -9 -2 -11 8 -7 9 3 16
10 16 16 0 5 4 7 9 3 5 -3 13 0 17 6 5 8 9 8 14 -2 7 -10 11 -9 24 3 8 9 12
19 8 24 -4 5 0 3 9 -4 12 -9 18 -9 27 0 7 7 12 8 12 3 0 -5 7 0 16 11 8 10 12
12 8 4 -7 -13 -5 -13 9 -1 9 7 17 10 17 5 0 -5 5 -1 11 9 6 9 15 14 21 11 6
-4 13 -3 17 2 3 5 17 15 30 22 19 11 22 11 16 0 -3 -7 0 -5 9 6 8 10 19 15 24
12 6 -3 13 1 16 10 3 9 12 14 19 11 13 -5 39 17 30 27 -3 3 5 3 17 1 12 -2 20
-2 17 2 -7 6 58 53 74 53 5 0 12 7 15 15 4 8 12 15 19 15 8 0 17 5 21 12 4 7
3 8 -4 4 -7 -4 -12 -5 -12 -1 0 3 12 10 26 15 15 6 22 14 18 22 -4 7 -3 8 4 4
7 -4 12 -2 12 4 0 6 4 8 10 5 5 -3 10 -2 10 4 0 14 62 77 73 73 5 -1 6 2 3 6
-3 5 3 20 14 32 11 12 22 31 25 41 4 11 11 16 18 13 7 -4 9 -4 5 1 -4 4 1 20
12 35 11 15 17 30 13 34 -3 3 0 6 7 6 7 0 10 3 7 7 -4 3 1 15 10 26 10 11 12
17 6 13 -7 -4 -13 -3 -13 3 0 5 5 11 12 13 10 4 14 21 17 66 1 7 4 11 9 9 4
-3 7 17 6 45 0 27 6 61 13 74 6 14 8 22 3 19 -6 -4 -11 12 -11 37 -2 69 -5 91
-16 118 -6 14 -8 29 -6 33 3 5 -3 15 -13 23 -11 9 -12 12 -4 8 12 -6 13 -5 3
7 -6 8 -13 23 -15 34 -1 11 -12 28 -23 38 -11 10 -13 15 -5 11 13 -7 13 -6 0
12 -7 10 -21 25 -29 32 -12 10 -12 12 -1 12 8 0 -1 11 -20 25 -19 14 -30 25
-25 25 4 0 -4 10 -18 23 -15 12 -27 28 -27 35 0 7 -4 10 -10 7 -6 -3 -10 -1
-10 5 0 14 -46 60 -60 60 -6 0 -13 7 -16 15 -4 8 -12 15 -19 15 -7 0 -15 3
-17 8 -2 4 -22 19 -45 35 -24 15 -43 32 -43 38 0 5 -4 7 -10 4 -5 -3 -10 -1
-10 5 0 6 -5 8 -10 5 -6 -3 -10 -1 -10 5 0 6 -4 8 -10 5 -6 -3 -10 0 -10 7 0
9 -3 9 -10 -2 -8 -13 -10 -12 -10 3 0 10 -4 16 -9 12 -5 -3 -16 2 -24 10 -9 8
-23 15 -31 15 -9 0 -16 5 -16 12 0 6 -3 8 -7 5 -3 -4 -15 1 -26 10 -11 10 -17
12 -12 4 5 -9 -1 -7 -19 4 -14 10 -26 13 -26 9 0 -5 -4 -3 -9 4 -4 7 -24 14
-43 15 -20 1 -34 5 -31 10 2 4 -3 7 -12 7 -10 0 -13 5 -9 13 6 9 4 9 -8 -1
-11 -9 -18 -10 -23 -2 -3 6 -11 8 -16 5 -5 -4 -9 -1 -9 6 0 7 -3 9 -7 6 -3 -4
-13 -1 -21 6 -13 10 -14 9 -7 -3 8 -13 6 -13 -8 -2 -16 14 -49 22 -99 24 -16
1 -28 5 -28 10 0 4 -5 8 -11 8 -5 0 -7 -6 -3 -12 5 -9 2 -9 -9 1 -9 7 -17 10
-17 6 0 -4 -6 -3 -12 2 -7 6 -25 10 -40 9 -19 -1 -28 3 -29 14 0 10 -2 11 -6
3 -2 -7 -9 -13 -14 -13 -6 0 -7 6 -3 13 6 9 5 9 -8 0 -8 -7 -18 -10 -21 -7 -3
4 -44 8 -90 9 -46 1 -90 6 -97 10 -9 5 -11 4 -6 -3 10 -16 -3 -15 -36 2 -24
13 -26 12 -20 -2 5 -14 3 -15 -10 -4 -13 10 -17 10 -21 0 -4 -9 -6 -9 -6 -1
-1 8 -10 9 -33 2 -41 -11 -41 -11 -33 1 4 6 -2 7 -17 2 -13 -5 -44 -8 -70 -7
-26 1 -45 -1 -43 -5 2 -3 -12 -5 -31 -4 -19 2 -34 -1 -34 -8 0 -7 -4 -7 -13 1
-10 8 -17 7 -25 -1 -7 -7 -12 -9 -12 -5 0 4 -9 3 -20 -3 -12 -7 -20 -7 -20 -1
0 12 -41 5 -50 -9 -3 -5 -25 -11 -49 -12 -26 -1 -45 -7 -51 -17 -6 -11 -9 -12
-10 -3 0 9 -5 10 -17 4 -10 -5 -24 -7 -32 -4 -8 3 -11 0 -7 -7 7 -10 -17 -15
-61 -14 -7 1 -13 -3 -13 -9 0 -5 -4 -6 -10 -3 -5 3 -10 1 -10 -5 0 -6 -4 -9
-9 -5 -5 3 -12 1 -16 -5 -4 -6 -11 -8 -16 -5 -5 4 -9 2 -9 -2 0 -5 -10 -9 -22
-10 -11 -1 -24 -7 -28 -14 -4 -6 -13 -8 -19 -5 -6 4 -11 2 -11 -4 0 -6 -4 -8
-10 -5 -5 3 -10 1 -10 -5 0 -7 -6 -10 -12 -8 -7 3 -19 -1 -26 -9 -8 -7 -18
-11 -23 -8 -5 4 -9 2 -9 -4 0 -6 -11 -13 -25 -17 -14 -3 -25 -10 -25 -15 0 -5
-6 -9 -13 -9 -8 0 -24 -9 -37 -20 -22 -19 -35 -24 -53 -21 -5 1 -6 -3 -2 -9 3
-5 2 -10 -4 -10 -5 0 -22 -11 -37 -25 -14 -13 -32 -22 -38 -18 -6 3 -8 3 -5
-1 7 -8 -47 -66 -61 -66 -10 0 -35 -41 -33 -51 1 -4 -5 -6 -15 -5 -9 0 -17 -3
-17 -9 0 -5 -15 -30 -33 -54 -17 -24 -32 -50 -32 -56 0 -7 -7 -16 -16 -19 -8
-3 -12 -10 -9 -16 3 -5 1 -10 -5 -10 -6 0 -9 -4 -5 -9 3 -5 -1 -16 -9 -24 -8
-8 -12 -17 -9 -21 4 -3 2 -6 -4 -6 -6 0 -9 -13 -8 -30 1 -16 -1 -27 -6 -24 -5
3 -9 -5 -9 -18 0 -44 -9 -47 -97 -36 -7 1 -13 4 -13 7 0 4 -12 8 -27 9 -15 1
-30 7 -34 13 -3 6 -9 10 -13 10 -23 -3 -36 0 -31 9 3 6 -3 10 -14 10 -12 0
-21 5 -21 11 0 5 -4 8 -9 5 -7 -5 -20 3 -68 44 -7 6 -13 8 -13 4 0 -4 -8 3
-19 14 -10 12 -21 19 -25 15 -3 -3 -6 -1 -6 6 0 6 -10 22 -21 34 -12 12 -19
15 -15 7 8 -16 3 -11 -44 48 -13 17 -28 28 -32 26 -4 -3 -5 3 -1 12 4 12 3 15
-5 10 -7 -4 -12 -3 -12 3 0 6 -10 19 -22 31 -12 11 -18 20 -14 20 4 0 1 6 -6
14 -7 8 -17 11 -22 8 -5 -3 -7 -1 -3 4 7 13 -48 86 -58 76 -5 -4 -5 -1 -1 6 4
6 1 19 -6 27 -23 25 -33 39 -47 68 -8 15 -18 27 -23 27 -4 0 -8 9 -8 19 0 11
-9 23 -20 26 -11 4 -18 11 -14 16 3 6 -3 18 -15 28 -11 10 -18 21 -14 25 3 3
1 6 -5 6 -7 0 -12 9 -12 20 0 11 -7 20 -15 20 -8 0 -15 8 -15 18 0 9 -12 28
-25 41 -14 12 -22 28 -18 34 4 6 1 7 -6 3 -8 -5 -14 0 -18 13 -3 12 -9 21 -14
21 -5 0 -9 4 -9 10 0 10 -51 69 -122 140 -26 26 -44 50 -41 54 3 3 1 6 -5 6
-6 0 -22 10 -35 23 -38 36 -67 57 -77 57 -6 0 -10 4 -10 9 0 5 -9 13 -20 16
-11 4 -17 11 -14 17 4 6 3 8 -3 5 -12 -7 -63 14 -63 26 0 5 -4 6 -8 3 -5 -3
-19 4 -30 15 -14 13 -22 15 -22 7 0 -8 -3 -9 -8 -3 -4 6 -14 11 -22 13 -8 2
-27 10 -43 17 -19 9 -25 10 -20 2 5 -9 3 -9 -8 -1 -8 6 -22 10 -31 9 -11 -2
-15 2 -11 13 5 11 3 13 -8 6 -29 -18 -66 0 -47 24 6 6 7 12 4 12 -4 0 -1 7 8
15 8 9 13 22 10 30 -4 9 0 15 7 15 12 0 12 2 1 9 -11 7 -11 9 0 13 8 4 13 23
13 54 0 31 6 54 15 62 8 8 10 11 4 8 -7 -3 -15 1 -18 10 -5 12 -2 15 10 10 13
-5 14 -3 7 6 -11 14 -11 18 -15 86 -1 23 -7 42 -12 42 -4 0 -2 8 5 17 9 11 10
14 2 10 -15 -9 -29 35 -17 54 4 8 3 9 -4 5 -11 -6 -16 6 -13 27 0 4 -4 7 -11
7 -6 0 -8 3 -5 7 4 3 2 12 -4 20 -9 10 -8 13 5 13 9 0 16 6 16 14 0 9 8 12 25
8 19 -3 25 0 26 14 0 18 1 18 9 -1 7 -17 9 -17 9 -3 1 11 6 15 16 12 8 -4 15
-2 15 4 0 9 18 17 43 20 5 0 15 9 23 19 7 10 14 14 14 10 0 -5 7 -1 16 7 8 9
20 14 25 10 5 -3 8 0 7 7 -2 7 2 13 8 14 16 0 44 32 36 40 -4 5 -2 5 5 1 7 -4
30 12 57 38 24 25 47 42 52 38 4 -4 4 -2 1 4 -3 6 2 17 11 26 9 8 35 37 57 63
22 26 45 54 52 60 7 7 9 15 6 19 -4 3 -1 6 5 6 6 0 19 14 27 30 9 17 20 28 25
25 5 -3 7 4 5 15 -2 13 1 20 11 20 8 0 13 4 10 9 -3 5 1 14 9 21 8 7 15 19 15
27 0 7 7 16 15 19 8 4 12 10 9 15 -3 5 0 9 5 9 6 0 11 7 11 15 0 8 5 15 10 15
6 0 10 9 10 21 0 11 4 18 9 15 5 -4 12 7 16 24 4 17 11 28 16 24 5 -3 9 1 9 9
0 8 7 17 15 21 8 3 15 12 15 20 0 24 41 86 53 79 6 -3 7 -1 3 5 -6 11 8 50 23
62 9 7 30 41 44 73 7 15 16 24 20 20 4 -3 7 1 7 10 0 10 5 17 12 17 6 0 9 3 5
6 -5 5 10 27 40 59 7 7 9 15 6 19 -4 3 0 6 7 6 7 0 11 2 8 5 -6 6 25 46 79
102 18 18 29 33 25 33 -4 0 1 5 11 11 9 6 15 14 12 20 -4 5 -1 9 4 9 6 0 13 0
15 1 11 1 81 74 78 81 -1 4 1 7 5 6 13 -3 63 25 63 34 0 5 5 6 10 3 5 -3 10
-1 10 5 0 6 5 8 10 5 6 -3 10 -1 10 4 0 6 7 11 16 11 8 0 22 7 31 15 8 8 19
13 24 10 5 -4 9 -2 9 4 0 5 9 8 20 6 11 -2 20 1 20 7 0 5 7 8 15 5 8 -4 17 -2
20 2 8 14 54 19 59 7 3 -7 5 -7 5 1 1 7 8 10 16 7 8 -4 13 -10 10 -14 -3 -5
-1 -11 4 -15 6 -3 8 -12 4 -20 -3 -8 -1 -15 4 -15 6 0 9 -14 8 -30 -1 -17 4
-35 12 -41 7 -6 13 -15 13 -20 0 -4 13 -30 29 -58 16 -27 26 -53 23 -57 -4 -4
-2 -4 4 -1 6 3 18 -7 28 -24 9 -16 22 -29 27 -29 6 0 7 -5 3 -12 -4 -7 -3 -8
4 -4 7 4 17 -3 23 -18 7 -14 16 -23 20 -20 5 3 9 -2 9 -11 0 -9 5 -13 10 -10
6 3 10 0 10 -8 0 -8 22 -28 50 -45 27 -17 50 -36 50 -42 0 -6 4 -9 9 -5 5 3
16 -4 24 -15 7 -11 17 -17 20 -13 4 3 7 1 7 -5 0 -7 7 -12 15 -12 7 0 19 -8
24 -17 6 -10 11 -14 11 -10 0 4 10 2 23 -5 12 -7 25 -11 30 -10 4 1 7 -2 7 -8
0 -5 7 -10 15 -10 8 0 15 -6 15 -12 0 -9 4 -8 10 2 8 13 10 13 10 -2 0 -10 5
-15 13 -12 8 3 20 -2 27 -10 7 -9 16 -13 21 -10 5 3 12 -2 15 -10 3 -9 10 -13
15 -10 6 3 17 0 26 -8 14 -11 16 -11 9 2 -6 13 -5 13 6 0 7 -9 21 -14 31 -12
9 2 17 -1 17 -6 0 -5 6 -9 13 -10 44 -6 57 -10 71 -21 9 -7 27 -11 41 -8 14 2
23 2 21 -1 -11 -10 29 -31 41 -21 7 7 14 6 18 -1 3 -6 11 -7 17 -4 6 4 14 0
19 -7 7 -11 9 -11 9 -1 0 9 5 10 18 4 9 -5 23 -7 31 -4 8 2 11 0 8 -5 -3 -5 6
-10 21 -10 57 -1 73 -3 68 -11 -3 -5 1 -9 9 -9 8 0 15 4 15 9 0 5 6 6 12 1 7
-4 45 -8 84 -9 39 0 76 -4 83 -8 6 -4 11 -2 11 4 0 7 6 8 18 2 9 -5 29 -7 45
-6 19 2 25 -1 20 -9 -5 -9 -3 -9 8 0 20 16 31 17 40 1 7 -10 9 -8 9 7 1 19 1
19 11 2 10 -18 11 -18 25 0 8 12 13 13 14 5 0 -7 5 -10 10 -7 6 4 17 1 25 -5
12 -10 16 -9 20 2 4 9 24 13 70 13 36 0 65 4 65 8 0 5 5 5 10 2 6 -3 10 0 11
7 0 7 4 4 9 -7 7 -17 9 -17 9 -2 1 9 6 17 12 17 5 0 7 -5 3 -12 -5 -7 -3 -8 6
-3 15 9 51 16 92 19 14 0 24 5 20 10 -3 5 2 7 11 3 9 -3 19 -2 22 3 4 6 11 10
16 10 6 0 7 -5 3 -12 -4 -6 3 -4 17 5 13 9 34 17 47 17 13 0 21 4 17 9 -3 6 5
8 19 5 14 -2 28 0 31 6 4 6 11 8 16 5 5 -4 9 -1 9 4 0 6 5 11 11 11 5 0 7 -6
3 -12 -4 -7 2 -5 14 5 11 11 25 16 31 13 5 -3 11 -1 13 5 2 6 15 12 30 12 14
1 24 5 21 10 -2 4 1 8 6 8 6 1 16 2 21 3 6 0 14 7 19 14 5 8 11 13 15 13 29
-4 46 1 40 11 -5 7 -2 9 9 5 9 -3 18 1 21 10 4 9 9 13 12 10 4 -3 13 1 21 9 8
8 19 12 24 8 5 -3 12 2 15 11 4 9 13 14 21 11 8 -3 11 -1 8 4 -4 6 7 15 24 21
17 6 28 15 25 20 -3 5 1 9 8 9 8 0 28 14 46 30 18 17 38 30 44 30 6 0 9 3 6 6
-4 3 13 24 37 47 24 22 42 44 39 49 -3 4 3 8 12 8 10 0 15 3 11 6 -3 3 2 14
11 24 35 38 42 50 42 65 0 10 5 13 12 9 8 -5 9 -2 5 9 -4 10 0 20 11 26 9 5
15 11 13 13 -3 2 1 19 9 38 7 19 13 37 14 40 1 3 5 11 10 19 7 10 5 12 -5 7
-8 -4 -5 0 5 8 15 12 16 16 5 16 -8 0 -10 3 -4 8 6 4 10 23 10 42 0 19 3 46 6
60 3 14 2 35 -2 48 -5 14 -5 22 3 22 7 0 7 4 1 13 -6 6 -9 24 -8 40 1 15 -1
27 -4 27 -3 0 -7 10 -8 23 -4 37 -8 54 -19 68 -6 8 -10 21 -9 29 0 8 -6 21
-15 28 -8 8 -9 10 -2 7 11 -6 11 -3 1 13 -7 12 -16 19 -20 16 -5 -2 -6 5 -4
16 2 11 0 18 -6 15 -5 -4 -9 0 -9 7 0 8 -13 28 -30 46 -16 18 -30 37 -30 43 0
5 -7 9 -16 9 -8 0 -12 5 -9 10 3 6 1 10 -4 10 -6 0 -11 8 -11 17 0 9 -3 14 -6
10 -7 -6 -34 17 -34 29 0 11 -42 44 -57 44 -8 0 -11 5 -8 10 3 6 -1 10 -9 10
-8 0 -20 9 -26 20 -6 11 -15 18 -19 15 -5 -3 -11 2 -15 10 -3 8 -12 15 -21 15
-8 0 -15 5 -15 10 0 6 -6 10 -14 10 -8 0 -16 4 -18 9 -2 5 -10 11 -18 13 -8 2
-21 10 -28 18 -8 8 -11 9 -7 3 4 -9 1 -11 -9 -7 -9 3 -16 12 -16 19 0 8 -8 11
-20 8 -11 -3 -20 -1 -20 5 0 14 -68 44 -82 36 -7 -4 -8 -3 -4 4 4 7 1 13 -6
14 -7 0 -18 2 -24 2 -6 1 -20 8 -30 16 -10 9 -15 10 -10 3 5 -9 2 -11 -8 -7
-9 3 -16 11 -16 16 0 6 -9 8 -21 5 -16 -4 -19 -2 -14 11 5 13 3 14 -5 6 -9 -9
-19 -8 -41 3 -16 8 -33 12 -39 8 -5 -3 -10 -2 -10 4 0 5 -11 8 -25 7 -15 -2
-22 1 -18 7 4 6 0 8 -10 4 -9 -3 -19 -2 -22 3 -3 4 -16 7 -30 5 -14 -1 -28 1
-31 6 -2 4 -11 6 -19 2 -8 -3 -15 -1 -15 5 0 5 -8 9 -17 9 -59 0 -74 4 -67 16
6 9 5 9 -7 0 -12 -10 -18 -10 -29 0 -10 10 -11 9 -5 -3 7 -12 6 -13 -6 -3 -12
10 -18 10 -29 0 -7 -6 -10 -7 -7 -2 4 7 -25 11 -85 12 -64 1 -93 5 -99 15 -6
8 -9 9 -9 1 0 -10 -107 -17 -222 -15 -10 1 -20 -4 -24 -9 -4 -6 -11 -6 -20 2
-11 9 -14 9 -14 -1 0 -10 -3 -10 -14 -1 -9 8 -15 8 -18 1 -1 -5 -32 -12 -67
-14 -35 -2 -66 -8 -70 -13 -3 -5 -18 -8 -33 -8 -16 1 -28 -4 -28 -10 0 -5 -5
-3 -10 5 -8 12 -10 12 -10 -5 0 -17 -2 -17 -10 -5 -7 11 -10 11 -10 2 0 -7 -5
-10 -10 -7 -6 4 -17 1 -25 -5 -8 -7 -15 -10 -15 -6 0 4 -14 -1 -31 -10 -23
-11 -29 -12 -23 -2 6 10 5 11 -8 1 -8 -7 -18 -10 -21 -6 -4 3 -7 2 -7 -4 0 -6
-16 -14 -35 -17 -19 -4 -35 -11 -35 -17 0 -6 -4 -8 -8 -5 -5 3 -20 -1 -35 -9
-14 -7 -28 -11 -31 -7 -3 3 -6 0 -6 -7 0 -8 -6 -11 -16 -7 -8 3 -12 2 -9 -4 3
-6 -3 -10 -14 -10 -12 0 -21 -5 -21 -11 0 -6 -6 -9 -12 -7 -7 3 -20 -5 -30
-16 -10 -13 -17 -16 -18 -8 0 10 -3 10 -14 0 -8 -7 -11 -17 -8 -22 3 -5 0 -6
-7 -2 -6 4 -18 2 -26 -4 -8 -7 -15 -9 -15 -4 -1 5 -7 -2 -15 -16 -7 -14 -15
-23 -17 -21 -6 6 -78 -41 -78 -52 0 -6 -2 -8 -5 -5 -9 9 -175 -158 -175 -176
0 -10 -4 -14 -10 -11 -5 3 -10 2 -10 -4 0 -6 -10 -20 -22 -32 -13 -12 -16 -18
-9 -14 9 5 6 -4 -7 -22 -12 -17 -19 -33 -15 -37 3 -3 1 -6 -5 -6 -7 0 -12 -8
-12 -18 0 -10 -7 -28 -16 -40 -9 -13 -13 -29 -10 -37 3 -8 2 -15 -3 -15 -4 0
-8 -6 -9 -12 -1 -7 -4 -24 -6 -38 -2 -14 -5 -28 -5 -32 -1 -3 -9 -5 -18 -3
-10 1 -26 -2 -37 -7 -14 -7 -16 -7 -11 2 6 9 2 9 -15 0 -12 -6 -28 -9 -36 -6
-8 3 -14 1 -14 -3 0 -5 -12 -8 -26 -6 -14 1 -28 -3 -30 -10 -5 -11 -58 -30
-76 -26 -5 0 -8 -3 -8 -9 0 -5 -7 -6 -17 -3 -11 4 -14 3 -9 -5 4 -7 1 -12 -8
-12 -9 0 -16 -5 -16 -10 0 -6 -3 -9 -7 -8 -16 4 -82 -36 -76 -45 4 -6 0 -8
-10 -4 -9 3 -18 0 -21 -9 -3 -9 -11 -12 -17 -8 -8 4 -9 3 -5 -5 4 -6 0 -14
-11 -18 -17 -7 -168 -153 -158 -153 3 0 -9 -13 -27 -30 -17 -16 -27 -30 -23
-30 4 0 -6 -13 -23 -30 -18 -17 -27 -30 -20 -30 6 0 -1 -10 -15 -22 -14 -13
-27 -30 -29 -38 -5 -21 -22 -39 -32 -32 -5 3 -7 -2 -3 -11 3 -10 2 -17 -4 -17
-5 0 -15 -12 -22 -27 -6 -16 -18 -33 -26 -39 -8 -6 -11 -16 -7 -22 4 -7 1 -12
-9 -12 -9 0 -13 -4 -10 -10 3 -5 1 -10 -5 -10 -6 0 -8 -4 -5 -10 3 -5 1 -10
-4 -10 -6 0 -11 -7 -11 -16 0 -9 -5 -12 -12 -8 -6 4 -8 3 -5 -3 4 -6 -2 -21
-13 -33 -11 -12 -17 -27 -14 -31 3 -5 -2 -12 -11 -15 -9 -4 -14 -13 -11 -21 3
-8 1 -11 -4 -8 -6 3 -10 -1 -10 -9 0 -9 -4 -16 -10 -16 -5 0 -10 -7 -10 -15 0
-9 -6 -18 -14 -21 -8 -3 -13 -11 -10 -18 2 -6 -10 -27 -28 -46 -18 -18 -26
-30 -19 -25 8 5 4 -7 -9 -26 -13 -19 -28 -35 -32 -37 -4 -2 -8 -10 -8 -18 0
-9 -4 -13 -9 -9 -6 3 -8 -4 -6 -15 2 -11 0 -18 -6 -15 -5 4 -12 -2 -16 -12 -4
-10 -15 -25 -25 -34 -10 -9 -15 -19 -11 -23 3 -3 1 -6 -6 -6 -7 0 -9 -4 -6
-10 3 -5 -2 -10 -11 -10 -10 0 -15 -3 -11 -6 3 -4 -9 -22 -29 -40 -19 -19 -32
-34 -28 -34 3 0 -1 -7 -10 -15 -8 -8 -19 -15 -25 -15 -6 0 -10 -6 -8 -12 1 -7
-4 -12 -10 -11 -7 2 -13 -4 -13 -13 0 -8 -4 -12 -10 -9 -5 3 -10 -1 -10 -9 0
-9 -3 -15 -7 -15 -21 3 -33 -2 -28 -12 4 -6 -2 -13 -14 -16 -12 -3 -21 -9 -21
-14 0 -5 -5 -9 -11 -9 -6 0 -24 -9 -40 -21 -16 -11 -29 -17 -29 -14 0 4 -7 -1
-16 -9 -8 -9 -20 -14 -25 -11 -5 4 -9 2 -9 -4 0 -6 -7 -7 -17 -4 -9 4 -14 2
-11 -3 4 -5 -8 -10 -25 -11 -17 -1 -33 -6 -36 -10 -10 -13 -61 -10 -61 3 0 6
-7 15 -16 18 -9 4 -14 9 -11 12 8 9 -13 28 -51 48 -18 9 -32 23 -32 32 0 8 -4
13 -9 9 -5 -3 -22 6 -37 20 -14 13 -31 22 -37 18 -6 -4 -7 -1 -3 6 5 8 0 14
-13 18 -12 3 -21 10 -21 15 0 5 -4 7 -10 3 -5 -3 -18 3 -29 14 -11 11 -22 17
-25 13 -3 -3 -6 0 -6 6 0 7 -5 12 -11 12 -5 0 -7 -5 -4 -11 4 -6 -2 -5 -14 3
-12 7 -21 16 -21 20 0 5 -12 8 -26 8 -14 0 -23 4 -19 10 3 6 -3 10 -15 10 -11
0 -23 7 -26 15 -4 8 -10 12 -15 9 -5 -3 -23 1 -39 10 -19 9 -28 10 -23 3 4 -7
0 -6 -10 2 -9 7 -17 10 -17 5 0 -5 -7 0 -15 10 -11 14 -15 16 -15 5 0 -12 -2
-12 -9 0 -5 7 -13 11 -19 7 -5 -3 -15 1 -22 9 -10 12 -16 13 -28 3 -10 -8 -13
-9 -9 -2 8 14 -9 22 -40 19 -12 -1 -20 3 -16 8 3 5 -3 8 -13 7 -11 -1 -21 -1
-24 0 -8 2 -83 13 -102 13 -10 1 -18 4 -18 8 0 4 -20 6 -44 6 -24 -1 -42 1
-40 5 2 4 0 9 -5 12 -5 4 -12 2 -16 -3 -4 -7 -15 -7 -32 0 -19 7 -28 6 -33 -2
-5 -7 -10 -8 -14 -1 -3 6 -25 9 -49 8 -23 -1 -50 1 -59 6 -10 5 -18 5 -18 0 0
-4 -9 -8 -19 -8 -16 0 -18 3 -8 15 9 12 9 13 -1 7 -25 -15 -73 -25 -66 -14 4
6 -1 8 -16 3 -17 -5 -21 -4 -16 6 5 9 3 9 -6 -1 -9 -11 -34 -15 -90 -15 -50 1
-74 -3 -70 -10 3 -5 -1 -4 -10 3 -9 7 -19 9 -21 5 -3 -5 -21 -10 -39 -12 -64
-5 -73 -7 -86 -15 -7 -4 -12 -2 -12 6 0 10 -2 10 -9 -1 -7 -10 -10 -11 -16 -1
-6 10 -11 9 -21 -5 -7 -10 -20 -15 -29 -12 -8 4 -15 1 -15 -6 0 -8 -4 -6 -10
3 -8 12 -10 12 -10 1 0 -8 -3 -11 -7 -8 -3 4 -12 2 -20 -4 -7 -6 -13 -8 -13
-4 0 4 -8 1 -17 -6 -11 -9 -14 -10 -9 -2 5 9 2 11 -8 7 -9 -3 -16 -10 -16 -15
0 -5 -5 -9 -11 -9 -5 0 -7 6 -4 13 4 6 1 5 -7 -4 -7 -9 -18 -14 -23 -12 -6 2
-27 -5 -48 -16 -20 -10 -34 -15 -31 -10 3 5 1 9 -5 9 -5 0 -11 -5 -13 -12 -2
-6 -15 -13 -28 -15 -13 -2 -27 -8 -31 -15 -4 -6 -11 -8 -17 -4 -5 3 -13 -1
-16 -10 -4 -10 -14 -14 -26 -11 -11 3 -20 1 -20 -4 0 -5 -11 -11 -25 -15 -14
-3 -22 -11 -18 -17 4 -6 0 -8 -10 -4 -10 3 -17 2 -17 -4 0 -6 -4 -7 -10 -4 -5
3 -10 -1 -10 -10 0 -9 -4 -13 -10 -10 -12 7 -53 -19 -43 -28 6 -6 -20 -11 -40
-8 -5 1 -6 -3 -2 -9 3 -5 2 -10 -3 -10 -5 0 -21 -11 -36 -25 -14 -13 -26 -21
-26 -18 0 3 -11 -6 -25 -21 -13 -14 -29 -26 -36 -26 -6 0 -8 -7 -5 -17 4 -10
4 -14 0 -10 -4 4 -17 -3 -29 -16 -27 -28 -71 -54 -59 -36 5 9 2 10 -9 6 -9 -3
-18 -3 -21 1 -2 4 -27 7 -55 6 -28 0 -51 2 -51 5 0 3 -11 11 -25 18 -14 6 -23
7 -19 2 3 -5 0 -9 -5 -9 -6 0 -11 5 -11 11 0 5 -5 7 -10 4 -5 -3 -10 -2 -10 3
0 6 -10 8 -22 4 -12 -3 -19 -1 -15 5 3 5 -10 15 -29 22 -18 7 -34 17 -34 22 0
6 -4 8 -8 5 -5 -3 -20 6 -34 19 -14 13 -29 21 -32 18 -3 -4 -6 2 -6 12 0 10
-3 15 -7 12 -3 -4 -19 7 -35 23 -15 16 -28 27 -28 24 0 -2 -11 6 -25 20 -14
14 -25 32 -25 41 0 9 -3 14 -7 12 -10 -5 -43 29 -36 36 2 3 -7 13 -21 22 -14
10 -24 21 -21 25 3 4 -2 11 -11 14 -9 4 -14 9 -11 12 3 4 -4 15 -16 25 -12 10
-18 18 -14 19 4 0 -4 12 -18 27 -14 15 -25 33 -25 39 0 6 -7 17 -15 24 -9 7
-25 33 -36 57 -11 23 -24 43 -30 43 -6 0 -7 5 -4 10 3 6 1 10 -4 10 -6 0 -11
6 -11 14 0 8 -7 17 -16 20 -9 4 -14 13 -10 21 3 8 1 15 -4 15 -6 0 -10 6 -10
14 0 8 -7 16 -15 20 -8 3 -12 12 -9 21 4 10 0 15 -12 15 -16 0 -17 2 -4 10 13
8 12 10 -3 10 -10 0 -15 5 -12 10 3 6 2 10 -4 10 -6 0 -13 11 -17 25 -3 14
-10 25 -16 25 -5 0 -6 5 -3 10 3 6 0 10 -7 10 -8 0 -14 9 -15 21 -1 11 -10 28
-21 37 -10 10 -18 25 -16 35 1 9 -1 15 -6 12 -4 -2 -16 5 -26 17 -11 12 -13
18 -6 14 11 -7 11 -4 1 12 -7 12 -17 18 -21 16 -4 -3 -8 3 -8 13 0 10 -8 26
-17 35 -28 26 -43 46 -43 58 0 6 -4 9 -9 6 -7 -5 -19 20 -19 41 0 4 -10 11
-22 15 -12 4 -19 12 -15 17 3 5 -4 13 -16 16 -11 4 -18 9 -15 12 3 3 -11 20
-30 38 -18 18 -34 38 -34 45 0 7 -3 10 -7 7 -3 -4 -16 5 -29 18 -13 14 -26 25
-30 25 -3 0 -18 13 -34 30 -15 16 -30 26 -34 23 -3 -3 -6 -1 -6 6 0 7 -5 9
-10 6 -5 -3 -10 2 -10 11 0 10 -3 15 -6 11 -3 -3 -24 5 -45 18 -21 14 -44 26
-51 27 -7 2 -16 7 -20 12 -3 5 -14 11 -23 12 -9 1 -24 6 -33 10 -9 4 -26 9
-37 11 -10 2 -22 9 -26 15 -4 6 -18 9 -33 6 -14 -3 -23 -2 -21 2 3 5 -2 11
-11 14 -25 10 -36 7 -28 -6 4 -7 -2 -5 -13 5 -12 10 -24 14 -27 9 -7 -11 -66
-3 -66 10 0 5 -5 6 -11 2 -7 -4 -10 -1 -7 7 3 8 -1 26 -9 42 -7 15 -10 27 -6
27 4 0 2 5 -4 11 -6 6 -9 18 -6 27 4 10 2 13 -5 8 -11 -6 -17 5 -13 27 0 4 -4
7 -9 7 -6 0 -10 5 -10 10 0 12 -41 73 -53 78 -4 2 -4 9 -1 14 4 7 2 8 -4 4 -6
-3 -19 5 -29 20 -10 14 -26 33 -35 42 -10 9 -18 22 -18 29 0 7 -7 13 -16 13
-8 0 -12 5 -9 10 3 6 -1 10 -9 10 -9 0 -16 5 -16 10 0 6 -6 10 -13 10 -7 0
-19 9 -27 20 -8 11 -19 20 -25 20 -5 0 -25 14 -42 30 -18 17 -36 32 -40 33 -5
1 -7 6 -5 10 1 4 -3 7 -10 6 -18 -2 -78 23 -78 33 0 4 -9 8 -20 8 -11 0 -23 6
-26 14 -3 8 -12 12 -20 9 -8 -3 -14 0 -14 6 0 6 -5 11 -12 11 -6 0 -20 8 -31
18 -15 12 -18 13 -12 2 6 -11 3 -10 -12 3 -11 9 -22 14 -25 11 -3 -3 -25 4
-47 14 -23 11 -38 16 -35 10 4 -5 -4 -4 -17 3 -13 7 -28 13 -34 14 -5 0 -20 6
-31 12 -12 7 -24 9 -28 6 -3 -3 -6 0 -6 7 0 11 -3 11 -12 2 -15 -15 -28 -15
-28 -1 0 5 5 7 12 3 7 -4 8 -3 4 5 -6 9 -11 9 -22 0 -9 -7 -14 -8 -14 -1 0 6
-8 9 -19 7 -10 -2 -31 3 -45 10 -15 8 -24 10 -21 5 4 -6 1 -10 -4 -10 -6 0
-11 4 -11 8 0 5 -13 8 -30 7 -16 -1 -30 2 -30 6 0 5 -7 5 -17 2 -9 -4 -14 -2
-10 3 3 6 -5 10 -18 10 -13 0 -22 -3 -20 -6 2 -3 -5 -6 -15 -6 -10 0 -17 3
-15 6 2 4 -22 6 -53 5 -31 0 -63 4 -71 10 -11 7 -13 7 -8 -2 9 -14 -31 -6 -52
11 -11 8 -13 8 -8 -1 4 -6 3 -14 -3 -18 -5 -3 -10 -2 -10 3 0 6 -10 8 -22 4
-16 -4 -19 -2 -13 9 6 11 5 12 -6 2 -16 -15 -53 -17 -44 -3 3 6 1 10 -4 10 -6
0 -11 -6 -11 -14z"/>
<path d="M1366 5101 c-3 -5 -22 -7 -41 -5 -19 1 -35 0 -35 -4 0 -4 -21 -8 -48
-8 -26 -1 -58 -5 -71 -9 -19 -7 -22 -5 -16 6 6 11 5 12 -6 2 -7 -7 -25 -13
-40 -13 -15 0 -31 -5 -34 -10 -5 -8 -12 -7 -23 2 -9 7 -13 8 -9 2 4 -7 -2 -12
-16 -12 -31 -2 -50 -6 -66 -16 -10 -7 -12 -5 -6 5 6 11 5 12 -6 2 -7 -7 -23
-13 -36 -13 -13 0 -23 -4 -23 -8 0 -7 -24 -12 -67 -15 -7 0 -13 -5 -13 -10 0
-5 -7 -7 -15 -3 -8 3 -15 2 -15 -2 0 -4 -10 -8 -22 -9 -11 -1 -24 -7 -28 -14
-4 -6 -13 -8 -19 -5 -6 4 -11 2 -11 -4 0 -6 -4 -8 -10 -5 -5 3 -10 1 -10 -4 0
-6 -3 -10 -7 -9 -15 3 -63 -14 -63 -23 0 -5 -9 -9 -21 -9 -13 0 -18 -4 -13
-12 4 -7 3 -8 -4 -4 -6 4 -29 -5 -52 -19 -22 -14 -40 -22 -40 -18 0 5 -5 0
-11 -10 -6 -9 -14 -15 -19 -12 -4 3 -10 -2 -14 -10 -3 -8 -11 -15 -18 -15 -7
0 -26 -11 -41 -25 -15 -14 -27 -23 -27 -21 0 3 -9 -2 -19 -11 -11 -9 -17 -21
-14 -26 3 -6 1 -7 -5 -3 -7 4 -12 2 -12 -5 0 -7 -3 -10 -6 -6 -9 9 -104 -95
-97 -106 4 -6 0 -8 -10 -4 -12 5 -17 1 -17 -13 0 -11 -4 -20 -8 -20 -5 0 -15
-12 -23 -27 -8 -16 -16 -30 -19 -33 -12 -12 -30 -51 -30 -64 0 -8 -5 -16 -12
-18 -6 -2 -12 -20 -12 -40 -1 -20 -4 -34 -8 -31 -5 2 -9 -2 -9 -9 -5 -46 -7
-57 -14 -68 -6 -9 -4 -11 5 -5 10 6 11 4 4 -6 -11 -18 -14 -59 -7 -79 11 -28
11 -40 1 -40 -6 0 -7 8 -3 18 5 13 3 14 -6 5 -7 -7 -8 -17 -3 -25 5 -7 9 -20
10 -28 0 -8 4 -23 8 -32 4 -9 5 -22 1 -28 -3 -5 -2 -10 4 -10 5 0 8 -9 6 -20
-2 -11 1 -20 6 -20 6 0 8 -4 4 -9 -3 -5 2 -17 11 -25 11 -12 12 -16 2 -16 -10
0 -9 -3 2 -10 8 -5 11 -10 5 -10 -5 0 -4 -4 3 -9 7 -4 15 -17 16 -27 2 -10 9
-18 16 -16 6 1 9 -2 6 -7 -4 -5 1 -17 10 -25 8 -9 12 -16 7 -16 -4 -1 3 -10
16 -20 13 -11 21 -20 17 -20 -3 0 19 -25 49 -56 30 -30 55 -60 55 -65 0 -5 7
-9 15 -9 8 0 15 -4 15 -8 0 -4 18 -19 39 -32 21 -14 37 -28 34 -33 -2 -4 -1
-7 4 -6 13 4 63 -23 63 -33 0 -5 13 -14 30 -19 17 -6 27 -16 23 -22 -3 -5 -2
-7 4 -4 5 3 22 -1 37 -8 16 -8 32 -12 37 -9 5 3 9 -2 9 -10 0 -10 9 -16 24
-16 13 0 29 -7 36 -15 7 -9 15 -13 18 -10 3 2 11 -3 19 -13 9 -10 11 -11 7 -2
-7 13 -5 13 9 2 9 -8 20 -11 26 -8 5 3 11 1 13 -5 2 -5 18 -11 36 -11 18 -1
35 -6 39 -11 4 -6 1 -7 -8 -2 -8 5 -11 4 -6 -1 5 -5 21 -9 35 -9 15 0 26 -5
25 -10 -1 -6 11 -10 25 -9 15 1 32 -3 39 -8 6 -5 30 -10 52 -11 23 -1 41 -4
41 -7 0 -6 22 -9 78 -11 17 -1 32 -5 32 -9 0 -3 6 -7 13 -8 6 0 39 -3 72 -7
33 -3 119 -8 192 -9 72 -2 137 -7 144 -12 7 -4 10 -3 6 3 -4 6 4 11 18 11 14
0 23 -4 20 -8 -2 -3 2 -7 10 -7 8 0 12 3 10 7 -4 6 38 10 123 12 17 0 32 5 32
12 0 6 5 4 10 -4 5 -8 10 -10 10 -4 0 10 13 12 89 17 22 1 37 5 35 9 -2 4 4 7
13 7 29 1 87 13 98 21 6 4 24 6 42 5 18 -1 31 3 30 9 -1 6 7 11 18 12 11 0 31
6 43 13 13 7 26 10 29 7 3 -3 12 2 20 10 8 8 19 12 24 9 5 -4 9 -1 9 5 0 6 4
9 9 6 5 -3 28 5 52 18 24 12 50 21 58 18 10 -3 12 0 8 11 -4 11 -1 15 14 12
10 -2 19 0 19 6 0 5 7 9 15 9 9 0 18 7 22 16 3 10 13 14 25 11 14 -4 18 -1 14
8 -3 9 0 12 10 8 7 -3 14 0 14 6 0 6 5 11 10 11 11 0 26 11 62 45 12 12 18 14
13 5 -4 -8 20 13 53 48 33 34 65 62 71 62 6 0 11 5 11 10 0 6 12 23 28 38 15
16 28 35 30 43 2 8 8 16 13 17 5 2 9 13 9 23 0 11 5 17 10 14 9 -6 12 1 9 22
0 3 6 10 14 15 9 4 14 17 12 28 -2 11 0 20 6 20 5 0 9 3 8 8 -1 4 2 17 6 29 4
12 6 25 5 29 -1 4 4 11 12 15 10 7 10 9 -2 9 -11 0 -12 2 -3 8 8 5 14 38 17
83 2 40 5 79 6 84 2 6 0 17 -3 25 -3 8 -6 24 -5 35 1 38 -2 56 -10 51 -4 -2
-9 11 -10 31 -2 19 -9 42 -17 50 -9 8 -13 19 -10 23 6 10 -10 42 -34 73 -8 9
-10 17 -5 17 5 0 2 5 -6 10 -8 5 -15 15 -15 22 -1 7 -6 12 -12 11 -7 -2 -15 6
-18 17 -4 11 -11 20 -17 20 -6 0 -9 2 -6 5 6 6 -98 116 -107 115 -4 -1 -14 7
-23 18 -9 10 -25 21 -34 25 -10 3 -18 11 -18 17 0 6 -4 8 -10 5 -5 -3 -10 1
-10 10 0 9 -4 14 -8 11 -5 -3 -20 6 -35 20 -15 14 -27 22 -27 19 0 -3 -10 1
-23 10 -13 8 -27 12 -30 8 -4 -3 -7 -1 -7 5 0 7 -7 12 -15 12 -8 0 -15 4 -15
9 0 5 -14 11 -31 15 -21 4 -28 10 -23 18 4 7 4 10 -1 6 -4 -4 -15 -2 -23 5
-13 10 -14 9 -8 -1 7 -11 4 -11 -13 0 -12 7 -21 16 -21 19 0 4 -10 6 -22 5
-13 0 -22 4 -21 9 1 6 -16 10 -38 10 -21 0 -39 4 -39 10 0 10 -14 14 -57 17
-7 1 -13 4 -13 7 0 4 -12 8 -26 9 -15 1 -34 8 -42 15 -13 10 -14 9 -7 -2 6
-11 5 -12 -6 -5 -16 9 -29 12 -76 16 -18 1 -33 6 -33 10 0 4 -18 8 -39 8 -22
0 -43 5 -46 10 -5 8 -12 7 -23 -2 -9 -7 -13 -8 -9 -2 5 8 -9 11 -44 10 -28 -1
-52 1 -55 3 -2 2 -33 4 -68 4 -36 0 -63 3 -61 7 5 9 -27 6 -43 -4 -6 -4 -12
-2 -12 3 0 6 -5 11 -11 11 -5 0 -8 -4 -5 -8 2 -4 -4 -8 -15 -8 -10 0 -19 5
-19 10 0 5 -9 1 -19 -8 -14 -13 -21 -14 -27 -5 -5 8 -3 10 6 4 9 -5 11 -4 6 3
-9 14 -13 15 -20 3z"/>
<path d="M1506 3278 c3 -5 10 -6 15 -3 13 9 11 12 -6 12 -8 0 -12 -4 -9 -9z"/>
</g>
</svg>
