<?xml version="1.0" standalone="no"?>
<!DOCTYPE svg PUBLIC "-//W3C//DTD SVG 20010904//EN"
 "http://www.w3.org/TR/2001/REC-SVG-20010904/DTD/svg10.dtd">
<svg version="1.0" xmlns="http://www.w3.org/2000/svg"
 width="422.000000pt" height="422.000000pt" viewBox="0 0 422.000000 422.000000"
 preserveAspectRatio="xMidYMid meet">
<metadata>
Created by potrace 1.11, written by Peter Selinger 2001-2013
</metadata>
<g transform="translate(0.000000,422.000000) scale(0.100000,-0.100000)"
fill="#000000" stroke="none">
<path d="M2088 3979 c-24 -9 -45 -41 -40 -61 1 -4 -15 -12 -36 -17 -72 -19
-207 -53 -222 -56 -8 -2 -35 -8 -60 -15 -25 -7 -53 -14 -63 -16 -10 -2 -27 -6
-37 -9 -10 -3 -27 -7 -37 -9 -10 -2 -38 -9 -63 -16 -25 -7 -52 -13 -60 -15 -8
-2 -55 -13 -104 -25 -81 -20 -92 -21 -115 -7 -14 8 -35 13 -46 11 -30 -5 -57
-43 -51 -73 6 -25 -79 -131 -421 -528 -24 -29 -110 -130 -190 -225 -80 -95
-152 -177 -161 -182 -25 -14 -32 -28 -26 -52 5 -18 -13 -199 -31 -314 -2 -14
-6 -50 -10 -80 -11 -96 -15 -109 -45 -127 -16 -9 -32 -28 -35 -41 -9 -35 13
-81 41 -88 23 -6 26 -14 38 -119 3 -22 8 -58 10 -80 5 -40 20 -157 31 -249 5
-39 3 -47 -8 -43 -10 4 -14 -5 -15 -31 -2 -41 20 -72 52 -73 16 0 76 -79 254
-334 128 -183 237 -347 243 -364 6 -17 17 -32 25 -32 8 -1 18 -2 23 -3 5 0
109 -64 231 -141 123 -77 235 -147 250 -155 21 -11 29 -25 33 -53 3 -21 14
-45 24 -52 29 -23 81 -18 106 9 l22 23 239 -30 c193 -24 242 -33 257 -48 24
-24 34 -24 59 1 11 11 38 22 62 24 24 3 59 7 78 10 231 35 321 45 342 37 18
-7 29 -4 45 9 12 10 20 19 18 22 -2 2 71 41 164 87 163 82 169 84 192 68 63
-45 143 1 137 77 l-3 41 128 103 c106 84 135 102 162 102 42 0 68 31 55 65 -7
19 15 61 143 266 141 225 155 244 185 249 72 11 99 87 47 132 -27 24 -27 18
-5 213 5 44 12 115 15 158 4 43 8 86 10 95 1 10 6 50 10 90 6 61 11 77 35 101
34 34 31 58 -11 95 -16 15 -29 36 -30 49 0 12 -3 33 -5 47 -35 195 -44 264
-34 274 24 24 4 76 -29 76 -10 0 -55 64 -110 153 -52 83 -113 181 -136 217
-81 127 -85 136 -73 148 16 16 12 71 -7 92 -16 18 -95 33 -95 18 0 -5 -5 -8
-11 -8 -6 0 -133 86 -282 190 l-272 191 -1 40 c-1 22 -7 51 -15 65 -30 57
-117 71 -167 29 -23 -19 -38 -24 -64 -20 -79 11 -106 14 -163 20 -33 4 -70 8
-81 10 -12 2 -48 6 -80 10 -100 11 -112 15 -118 39 -3 12 -17 28 -31 34 -30
14 -31 14 -67 1z m202 -104 c43 -5 84 -10 180 -21 25 -3 72 -9 105 -14 33 -6
63 -10 68 -10 4 0 7 -8 7 -18 0 -11 -97 -102 -246 -232 -135 -118 -250 -216
-255 -218 -10 -4 -10 -11 -11 261 l0 208 29 28 c19 19 36 27 53 25 14 -2 45
-6 70 -9z m-217 -20 l28 -25 0 -241 c0 -133 -2 -243 -4 -246 -6 -5 -797 323
-809 335 -6 6 618 172 752 200 3 1 18 -10 33 -23z m599 -124 c34 -47 106 -58
157 -22 l26 18 278 -194 c153 -108 276 -198 272 -201 -3 -3 -145 -6 -316 -6
-284 -1 -312 1 -326 17 -20 22 -57 22 -78 0 -15 -14 -46 -17 -248 -17 -128 -1
-240 0 -249 2 -12 3 3 21 55 65 40 34 74 64 77 67 3 3 39 35 80 70 41 36 77
67 80 70 3 3 39 34 80 70 41 36 77 68 78 73 6 12 20 8 34 -12z m-996 -257
c219 -91 401 -167 403 -170 3 -3 -102 -112 -233 -243 l-238 -238 -34 18 c-20
9 -46 16 -58 13 -30 -5 -22 -23 -141 366 -53 173 -103 335 -111 359 -15 44
-12 77 5 67 5 -4 188 -81 407 -172z m-343 -236 l119 -387 -36 -36 c-20 -19
-39 -49 -43 -65 l-5 -30 -199 0 c-186 0 -200 1 -219 20 -25 25 -48 25 -75 0
-21 -19 -33 -20 -238 -18 l-217 3 48 56 c26 30 67 80 92 109 25 30 63 75 85
100 66 76 133 155 173 203 197 240 369 437 382 434 10 -1 52 -125 133 -389z
m1337 45 c0 -5 -115 -122 -255 -262 -182 -181 -258 -252 -266 -244 -9 9 -13
159 -10 456 l1 57 265 0 c146 0 265 -3 265 -7z m756 -20 c27 -31 27 -45 4
-218 -6 -44 -13 -96 -15 -115 -12 -94 -36 -289 -40 -322 -7 -58 -15 -114 -20
-155 -12 -100 -26 -197 -28 -199 -1 -1 -13 -4 -27 -6 -23 -3 -38 24 -280 508
-141 281 -254 516 -252 523 3 8 92 11 318 11 l315 0 25 -27z m-698 -13 c4 0
122 -229 262 -510 l254 -509 -23 -25 -23 -25 -218 109 c-119 60 -223 117 -230
125 -7 8 -20 15 -30 15 -10 0 -132 57 -272 128 l-254 127 1 35 c0 32 20 56
250 287 139 140 256 249 263 247 8 -2 17 -4 20 -4z m-626 -251 c0 -199 -2
-214 -20 -229 -49 -40 -50 -84 -4 -127 26 -24 26 -24 27 -199 0 -96 -2 -178
-5 -183 -3 -4 -22 -16 -43 -26 -37 -17 -87 -76 -87 -102 0 -14 7 -14 -238 -15
-95 -1 -175 1 -178 4 -3 3 118 251 268 551 150 300 274 544 276 542 2 -1 3
-99 4 -216z m-101 114 c-191 -389 -485 -970 -496 -982 -10 -11 -59 -13 -232
-13 -305 1 -293 0 -293 14 0 7 46 59 102 115 78 78 109 103 129 103 32 0 63
33 56 59 -3 14 16 39 72 95 l76 75 45 -15 c81 -28 157 4 192 82 19 44 18 75
-3 127 -12 28 -10 31 192 233 112 112 205 204 206 204 1 0 -19 -44 -46 -97z
m1544 -136 c50 -205 54 -230 41 -249 -10 -15 -12 -27 -5 -45 8 -20 -7 -56 -94
-230 -56 -113 -107 -205 -112 -205 -9 0 -9 34 0 82 1 8 27 209 56 447 29 237
54 431 56 430 1 -2 27 -105 58 -230z m139 -26 c70 -112 130 -210 133 -217 4
-11 -10 -14 -66 -14 -42 0 -71 4 -71 10 0 6 -10 14 -22 19 -20 8 -29 33 -71
202 -27 107 -51 205 -54 219 -5 24 -5 24 10 5 8 -11 71 -112 141 -224z m-2824
-269 c0 -12 -505 -512 -517 -512 -8 0 -11 11 -8 33 3 17 7 55 10 83 3 28 7 59
9 70 2 10 7 48 11 84 4 36 9 74 11 85 2 11 6 46 9 79 4 33 11 66 16 73 8 9 68
12 235 11 123 0 224 -3 224 -6z m507 -10 c2 -10 10 -27 16 -40 10 -21 4 -30
-66 -100 -53 -53 -85 -77 -102 -78 -21 -2 -50 22 -141 112 -63 63 -114 116
-114 118 0 2 90 4 201 4 178 0 201 -2 206 -16z m2443 9 c0 -5 -6 -16 -13 -23
-7 -7 -75 -85 -152 -173 -76 -88 -156 -178 -177 -200 -21 -22 -38 -43 -38 -47
0 -5 -5 -8 -10 -8 -6 0 37 94 95 209 88 175 109 210 130 215 14 4 28 13 31 21
5 11 23 15 70 15 35 0 64 -4 64 -9z m46 -58 c2 -15 15 -91 28 -168 l23 -140
-21 -30 c-12 -16 -22 -32 -23 -33 -4 -8 -387 -100 -395 -96 -4 3 -8 11 -8 19
0 7 -6 15 -12 17 -8 3 37 62 107 142 235 270 287 327 292 322 2 -2 6 -17 9
-33z m-2963 -212 l1 -229 -28 -23 c-39 -34 -39 -84 -1 -117 l28 -24 0 -230
c-1 -219 -1 -230 -22 -252 -27 -29 -27 -54 1 -84 21 -22 23 -33 23 -147 0 -69
-3 -121 -6 -117 -15 16 -319 513 -319 521 0 5 -9 20 -21 34 -11 15 -58 88
-104 163 -66 108 -82 141 -74 155 5 10 9 33 9 51 0 30 24 57 252 285 139 139
254 250 256 248 3 -3 5 -108 5 -234z m158 130 c88 -88 109 -114 109 -138 0
-23 -20 -48 -103 -131 -56 -56 -108 -102 -115 -102 -9 0 -12 56 -12 240 0 132
3 240 6 240 3 0 54 -49 115 -109z m1389 -13 c186 -92 248 -127 247 -140 -2
-19 -540 -827 -547 -823 -3 2 -5 87 -5 190 l0 186 41 18 c71 32 104 98 90 176
-8 42 -63 101 -103 109 l-28 7 0 185 c0 172 2 187 20 200 10 8 23 14 28 14 5
0 121 -55 257 -122z m538 -271 c185 -94 211 -110 203 -125 -8 -16 -28 -17
-190 -17 l-181 0 -25 28 c-14 15 -30 28 -35 28 -6 1 -16 2 -22 3 -44 6 -84
-44 -75 -92 5 -26 -10 -44 -210 -243 l-215 -214 79 120 c396 599 415 626 437
623 11 -2 117 -51 234 -111z m916 -52 c19 -14 19 -23 1 -180 -4 -38 -7 -69
-20 -200 -4 -33 -10 -98 -16 -145 -5 -47 -9 -90 -9 -96 0 -28 -32 -23 -58 8
-15 18 -68 80 -119 138 -59 66 -89 108 -83 114 28 28 -1 76 -44 76 -9 0 -34
18 -57 41 -38 38 -40 43 -29 65 7 13 16 40 19 60 l6 37 190 48 c105 26 192 47
195 48 3 0 13 -6 24 -14z m-2396 -125 c403 0 471 -3 476 -15 6 -17 17 -11
-234 -135 -154 -76 -203 -96 -232 -94 -44 2 -511 231 -502 245 3 5 9 7 14 4 5
-3 220 -5 478 -5z m1680 -17 c3 -18 -23 -34 -183 -113 -177 -89 -186 -92 -204
-76 -11 10 -38 20 -60 23 -36 5 -44 2 -76 -30 -29 -29 -36 -43 -33 -69 l3 -33
-185 -93 c-102 -52 -196 -98 -210 -103 -14 -6 81 95 210 224 l234 235 44 -1
c37 0 48 4 67 29 l23 29 183 0 c179 -1 184 -2 187 -22z m-1950 -138 c133 -66
242 -122 242 -125 0 -3 -56 -33 -124 -67 -115 -57 -125 -61 -139 -45 -20 24
-237 350 -237 358 0 8 -12 14 258 -121z m-168 -77 c67 -100 119 -186 117 -192
-7 -18 -214 -117 -231 -110 -14 5 -16 36 -16 245 0 131 2 239 5 239 3 0 59
-82 125 -182z m-639 32 c45 -74 82 -145 81 -157 -2 -21 -100 -178 -107 -171
-3 3 -11 51 -19 123 -13 108 -16 132 -21 155 -2 14 -7 54 -10 90 -4 36 -9 74
-12 85 -8 31 -1 20 88 -125z m1381 -375 l-234 -470 -43 3 c-26 2 -55 -3 -74
-13 l-32 -16 -225 224 c-169 169 -224 230 -224 248 0 21 15 32 107 78 59 29
119 55 133 58 14 2 27 9 28 14 7 18 244 131 265 125 14 -3 29 4 47 24 14 15
119 74 234 132 l209 104 21 -20 22 -21 -234 -470z m1484 449 c23 -6 71 -2 119
10 14 4 29 -6 54 -35 19 -22 32 -42 29 -44 -2 -3 -40 -7 -84 -10 -43 -3 -90
-8 -104 -10 -14 -2 -61 -7 -105 -10 -44 -4 -96 -8 -115 -10 -19 -2 -66 -6
-105 -10 -38 -3 -90 -8 -115 -10 l-45 -5 30 17 c17 10 102 54 190 98 l160 81
33 -28 c18 -15 44 -31 58 -34z m-1182 -217 c-1 -212 -4 -237 -32 -269 -17 -20
-3 -25 16 -6 7 7 12 10 13 7 1 -2 2 -84 3 -182 2 -174 1 -179 -21 -203 -29
-31 -29 -44 -1 -79 20 -26 22 -40 23 -167 0 -76 -2 -142 -5 -146 -3 -4 -18
-16 -34 -26 l-29 -18 -189 93 c-188 93 -189 94 -184 123 8 40 -10 101 -40 131
l-24 24 234 470 c196 392 238 469 253 465 17 -5 18 -21 17 -217z m1326 103 c0
-6 -8 -14 -17 -17 -10 -4 -160 -71 -333 -150 -201 -91 -318 -139 -324 -133
-16 16 -52 11 -70 -8 -10 -12 -15 -32 -14 -53 2 -29 -25 -75 -191 -324 -203
-305 -220 -328 -199 -280 46 105 216 432 230 443 9 7 16 20 15 30 0 10 36 92
82 183 81 162 84 166 115 166 41 0 81 26 96 63 7 17 20 30 29 31 9 0 24 2 34
4 9 2 52 6 95 10 42 3 95 8 117 10 90 9 154 15 235 21 47 3 87 8 89 10 7 7 11
4 11 -6z m104 -31 c-4 -61 -16 -228 -19 -259 -2 -19 -6 -75 -10 -125 -4 -49
-8 -106 -10 -125 -2 -19 -6 -80 -10 -136 -3 -55 -8 -109 -10 -120 -2 -10 -4
-39 -4 -63 -1 -37 -4 -43 -20 -38 -10 2 -165 122 -345 266 -314 252 -356 292
-313 303 15 3 45 17 456 205 146 67 271 120 276 119 6 -2 9 -14 9 -27z m193
-188 c60 -71 69 -87 60 -102 -8 -14 -8 -27 1 -53 12 -34 12 -35 -134 -267 -81
-129 -149 -236 -151 -239 -3 -3 -2 22 1 55 3 33 8 94 11 135 3 41 7 102 10
135 6 71 11 136 21 264 3 52 8 111 9 130 2 20 4 56 4 81 l1 45 48 -50 c26 -27
80 -88 119 -134z m-1145 -73 c-45 -90 -96 -179 -114 -200 -36 -40 -306 -258
-319 -258 -12 0 -11 -8 -13 185 -1 94 2 181 6 195 7 20 56 48 251 146 202 101
244 118 256 108 13 -12 3 -37 -67 -176z m-1893 -107 c84 -134 151 -244 149
-246 -2 -2 -91 60 -198 137 -238 170 -235 164 -159 279 28 44 53 78 54 77 2
-2 71 -113 154 -247z m2128 -38 c17 -15 160 -131 317 -257 157 -125 286 -231
286 -235 0 -4 -569 -6 -662 -2 -17 1 -18 21 -18 264 0 145 3 267 6 270 8 8 30
-5 71 -40z m-1644 -191 c255 -256 265 -272 123 -221 -239 85 -337 127 -352
148 -13 17 -16 49 -16 139 0 152 1 162 10 162 4 0 110 -103 235 -228z m1523
-306 c-16 -24 -491 -264 -502 -253 -4 4 109 182 252 396 l259 389 3 -256 c2
-205 0 -259 -12 -276z m-2027 364 c145 -104 198 -148 209 -173 10 -22 14 -70
14 -160 0 -71 -2 -130 -4 -131 -1 -2 -98 133 -215 300 -117 167 -209 304 -205
304 4 0 94 -63 201 -140z m1629 -291 c-83 -166 -153 -297 -157 -291 -4 6 -6
73 -6 149 1 128 3 141 24 170 13 17 21 37 19 44 -3 8 50 57 130 121 74 60 136
108 138 108 1 0 -65 -136 -148 -301z m-1198 51 c47 -17 126 -47 175 -66 l91
-34 0 -45 c1 -56 41 -111 95 -134 l39 -16 0 -147 c0 -81 -4 -149 -9 -152 -5
-3 -106 117 -226 267 -119 149 -233 292 -253 316 -46 55 -50 63 -20 52 12 -5
61 -23 108 -41z m94 -293 c135 -170 240 -305 233 -301 -103 60 -466 292 -479
307 -16 16 -18 41 -18 170 0 91 4 147 9 142 5 -6 120 -149 255 -318z m2236
136 c0 -1 -59 -50 -132 -108 -91 -74 -136 -104 -147 -99 -32 14 -69 16 -90 4
-20 -10 -35 -1 -149 90 -70 56 -128 105 -130 108 -1 4 144 7 323 7 179 0 325
-1 325 -2z m-551 -125 c125 -99 159 -135 134 -139 -23 -4 -780 -5 -792 -1 -17
6 465 251 496 251 12 1 78 -44 162 -111z m-963 -75 c84 -43 110 -61 109 -75
-1 -10 -6 -22 -11 -27 -5 -5 -104 -45 -220 -88 l-211 -80 -27 22 c-26 21 -26
21 -26 166 l0 145 33 12 c19 7 44 23 57 37 l23 24 81 -40 c44 -22 131 -66 192
-96z m1090 -106 c3 -3 -70 -43 -162 -89 -120 -59 -179 -83 -204 -82 -37 1
-423 161 -416 173 5 8 774 6 782 -2z m-910 -84 c12 -13 11 -143 -1 -162 -8
-14 -31 -12 -230 13 -28 4 -70 9 -95 12 -25 3 -76 10 -114 16 l-69 10 159 60
c88 33 188 70 224 83 l65 24 25 -22 c14 -12 30 -27 36 -34z m201 13 c43 -18
98 -42 123 -53 25 -11 71 -31 103 -43 58 -24 71 -35 40 -36 -10 0 -105 -13
-211 -28 -138 -20 -197 -25 -204 -18 -6 6 -12 46 -13 89 -2 77 -1 78 29 100
17 11 36 22 43 22 6 1 47 -14 90 -33z"/>
</g>
</svg>
